<svg xmlns="http://www.w3.org/2000/svg" xmlns:xlink="http://www.w3.org/1999/xlink" width="360" zoomAndPan="magnify" viewBox="0 0 270 60.75" height="81" preserveAspectRatio="xMidYMid meet" version="1.0"><defs><g/><clipPath id="e7e31c658e"><path d="M 56 1.722656 L 62 1.722656 L 62 36.828125 L 56 36.828125 Z M 56 1.722656 " clip-rule="nonzero"/></clipPath><clipPath id="0e470c9aa2"><path d="M 60 3 L 73.082031 3 L 73.082031 36.828125 L 60 36.828125 Z M 60 3 " clip-rule="nonzero"/></clipPath><clipPath id="641e507186"><path d="M 45.445312 4 L 54 4 L 54 17 L 45.445312 17 Z M 45.445312 4 " clip-rule="nonzero"/></clipPath><clipPath id="bbf9e64687"><path d="M 46 11 L 59 11 L 59 36.828125 L 46 36.828125 Z M 46 11 " clip-rule="nonzero"/></clipPath><clipPath id="ede8d59628"><path d="M 42.976562 19.410156 L 75.710938 19.410156 L 75.710938 39.035156 L 42.976562 39.035156 Z M 42.976562 19.410156 " clip-rule="nonzero"/></clipPath><clipPath id="8e46f47818"><path d="M 59.332031 19.410156 L 75.683594 29.222656 L 59.332031 39.035156 L 42.976562 29.222656 Z M 59.332031 19.410156 " clip-rule="nonzero"/></clipPath><clipPath id="7900d0f4a6"><path d="M 0.976562 0.410156 L 33.710938 0.410156 L 33.710938 20.035156 L 0.976562 20.035156 Z M 0.976562 0.410156 " clip-rule="nonzero"/></clipPath><clipPath id="b73fcc49ef"><path d="M 17.332031 0.410156 L 33.683594 10.222656 L 17.332031 20.035156 L 0.976562 10.222656 Z M 17.332031 0.410156 " clip-rule="nonzero"/></clipPath><clipPath id="3ad15c0a64"><rect x="0" width="34" y="0" height="21"/></clipPath><clipPath id="f015fdb03c"><path d="M 59.328125 29.164062 L 75.683594 29.164062 L 75.683594 48.839844 L 59.328125 48.839844 Z M 59.328125 29.164062 " clip-rule="nonzero"/></clipPath><clipPath id="f8c200f1ec"><path d="M 59.328125 39.027344 L 75.683594 29.21875 L 75.683594 48.839844 Z M 59.328125 39.027344 " clip-rule="nonzero"/></clipPath><clipPath id="823ecf04ee"><path d="M 0.328125 0.164062 L 16.683594 0.164062 L 16.683594 19.839844 L 0.328125 19.839844 Z M 0.328125 0.164062 " clip-rule="nonzero"/></clipPath><clipPath id="434609264c"><path d="M 0.328125 10.027344 L 16.683594 0.21875 L 16.683594 19.839844 Z M 0.328125 10.027344 " clip-rule="nonzero"/></clipPath><clipPath id="1988ad0b1e"><rect x="0" width="17" y="0" height="20"/></clipPath><clipPath id="7829c6fb59"><path d="M 42.972656 29.222656 L 59.324219 29.222656 L 59.324219 48.898438 L 42.972656 48.898438 Z M 42.972656 29.222656 " clip-rule="nonzero"/></clipPath><clipPath id="7923fd181c"><path d="M 59.324219 39.035156 L 42.972656 48.847656 L 42.972656 29.222656 Z M 59.324219 39.035156 " clip-rule="nonzero"/></clipPath><clipPath id="8594227c97"><path d="M 0.972656 0.222656 L 17.324219 0.222656 L 17.324219 19.898438 L 0.972656 19.898438 Z M 0.972656 0.222656 " clip-rule="nonzero"/></clipPath><clipPath id="a7b537f2ee"><path d="M 17.324219 10.035156 L 0.972656 19.847656 L 0.972656 0.222656 Z M 17.324219 10.035156 " clip-rule="nonzero"/></clipPath><clipPath id="5b14847506"><rect x="0" width="18" y="0" height="20"/></clipPath><clipPath id="fe18cb72aa"><path d="M 42.976562 39.035156 L 75.710938 39.035156 L 75.710938 58.65625 L 42.976562 58.65625 Z M 42.976562 39.035156 " clip-rule="nonzero"/></clipPath><clipPath id="06655e70ce"><path d="M 59.332031 39.035156 L 75.683594 48.84375 L 59.332031 58.65625 L 42.976562 48.84375 Z M 59.332031 39.035156 " clip-rule="nonzero"/></clipPath><clipPath id="70748d544d"><path d="M 0.976562 0.0351562 L 33.710938 0.0351562 L 33.710938 19.65625 L 0.976562 19.65625 Z M 0.976562 0.0351562 " clip-rule="nonzero"/></clipPath><clipPath id="8af4ef5a18"><path d="M 17.332031 0.0351562 L 33.683594 9.84375 L 17.332031 19.65625 L 0.976562 9.84375 Z M 17.332031 0.0351562 " clip-rule="nonzero"/></clipPath><clipPath id="7ab32aeb7f"><rect x="0" width="34" y="0" height="20"/></clipPath><clipPath id="744ce27eb3"><path d="M 19.921875 34.132812 L 51 34.132812 L 51 55 L 19.921875 55 Z M 19.921875 34.132812 " clip-rule="nonzero"/></clipPath><clipPath id="b037f9b503"><path d="M 0.921875 14 L 8 14 L 8 20.972656 L 0.921875 20.972656 Z M 0.921875 14 " clip-rule="nonzero"/></clipPath><clipPath id="02fa6d9cd7"><path d="M 10 0.132812 L 15 0.132812 L 15 5 L 10 5 Z M 10 0.132812 " clip-rule="nonzero"/></clipPath><clipPath id="10a9d64030"><path d="M 18 18 L 25 18 L 25 20.972656 L 18 20.972656 Z M 18 18 " clip-rule="nonzero"/></clipPath><clipPath id="83d8d29a5f"><path d="M 30 15 L 31.929688 15 L 31.929688 16 L 30 16 Z M 30 15 " clip-rule="nonzero"/></clipPath><clipPath id="6bff2bce7a"><rect x="0" width="32" y="0" height="21"/></clipPath><clipPath id="f03b6f995e"><path d="M 3 0.46875 L 15 0.46875 L 15 18 L 3 18 Z M 3 0.46875 " clip-rule="nonzero"/></clipPath><clipPath id="a85011d53c"><path d="M 14 0.46875 L 33 0.46875 L 33 19 L 14 19 Z M 14 0.46875 " clip-rule="nonzero"/></clipPath><clipPath id="254d75292f"><path d="M 32 0.46875 L 51 0.46875 L 51 19 L 32 19 Z M 32 0.46875 " clip-rule="nonzero"/></clipPath><clipPath id="eaf93dc216"><path d="M 51 0.46875 L 67 0.46875 L 67 18 L 51 18 Z M 51 0.46875 " clip-rule="nonzero"/></clipPath><clipPath id="5fd18b5083"><rect x="0" width="68" y="0" height="25"/></clipPath><clipPath id="8e8b974cbb"><rect x="0" width="99" y="0" height="26"/></clipPath></defs><g clip-path="url(#e7e31c658e)"><path fill="#ffffff" d="M 59.054688 1.824219 C 59.03125 1.882812 58.921875 3.222656 58.808594 4.800781 C 58.476562 9.488281 58.429688 9.890625 58.230469 10.144531 C 58.089844 10.328125 57.992188 10.332031 57.859375 10.1875 C 57.667969 9.976562 57.667969 9.953125 57.359375 4.105469 C 57.269531 2.332031 57.226562 2.023438 57.085938 2.023438 C 56.972656 2.023438 56.917969 2.335938 56.820312 3.515625 C 56.507812 7.585938 56.351562 11.503906 56.484375 12.199219 C 56.574219 12.683594 56.820312 13.191406 57.25 13.769531 C 57.734375 14.410156 57.957031 14.828125 58.144531 15.375 C 58.441406 16.257812 58.496094 16.800781 58.523438 19.164062 C 58.574219 22.464844 58.410156 24.863281 57.847656 29.109375 C 57.472656 31.984375 57.445312 32.3125 57.4375 33.398438 C 57.4375 34.457031 57.527344 35.042969 57.777344 35.664062 C 58.417969 37.234375 59.867188 37.347656 60.558594 35.886719 C 60.90625 35.160156 60.988281 34.65625 60.984375 33.339844 C 60.976562 32.179688 60.90625 31.375 60.625 29.382812 C 60.078125 25.425781 59.914062 23.292969 59.90625 19.929688 C 59.902344 16.058594 60.054688 15.292969 61.109375 13.816406 C 61.609375 13.117188 61.835938 12.640625 61.929688 12.089844 C 62.050781 11.367188 61.957031 8.96875 61.617188 4.347656 C 61.460938 2.222656 61.449219 2.113281 61.292969 2.113281 C 61.199219 2.113281 61.164062 2.171875 61.128906 2.355469 C 61.105469 2.488281 61.011719 4.117188 60.929688 5.976562 C 60.84375 7.839844 60.746094 9.523438 60.71875 9.714844 C 60.652344 10.121094 60.5 10.332031 60.3125 10.273438 C 60 10.175781 59.992188 10.128906 59.453125 3.285156 C 59.394531 2.5 59.328125 1.824219 59.304688 1.785156 C 59.238281 1.683594 59.105469 1.707031 59.054688 1.824219 Z M 58.289062 29.664062 C 58.246094 30.160156 58.210938 31.320312 58.210938 32.28125 C 58.210938 33.875 58.222656 34.042969 58.351562 34.546875 C 58.421875 34.84375 58.554688 35.242188 58.640625 35.421875 L 58.789062 35.753906 L 58.617188 35.585938 C 58.386719 35.367188 58.089844 34.78125 57.957031 34.273438 C 57.804688 33.71875 57.816406 32.183594 57.988281 31.011719 C 58.277344 29 58.320312 28.71875 58.351562 28.742188 C 58.363281 28.761719 58.335938 29.171875 58.289062 29.664062 Z M 58.289062 29.664062 " fill-opacity="1" fill-rule="nonzero"/></g><g clip-path="url(#0e470c9aa2)"><path fill="#ffffff" d="M 65.308594 3.90625 C 64.910156 4.113281 64.722656 4.425781 64.582031 5.101562 C 64.359375 6.238281 63.496094 13.070312 63.496094 13.726562 C 63.496094 14.410156 63.632812 14.875 64.097656 15.824219 C 64.589844 16.820312 64.703125 17.273438 64.703125 18.191406 C 64.703125 20.339844 63.886719 23.199219 61.773438 28.445312 C 60.976562 30.425781 60.972656 30.445312 61.023438 30.765625 C 61.050781 30.941406 61.085938 31.097656 61.097656 31.109375 C 61.117188 31.128906 61.703125 29.652344 62.765625 26.921875 C 62.945312 26.453125 63.101562 26.070312 63.113281 26.078125 C 63.121094 26.089844 62.691406 27.40625 62.160156 29.011719 L 61.1875 31.929688 L 61.183594 33.222656 L 61.171875 34.515625 L 61.398438 34.515625 C 61.929688 34.515625 62.179688 35.144531 61.808594 35.554688 C 61.671875 35.710938 61.59375 35.746094 61.40625 35.746094 C 61.273438 35.742188 61.109375 35.722656 61.042969 35.699219 C 60.929688 35.65625 60.898438 35.679688 60.84375 35.863281 C 60.800781 35.976562 60.664062 36.230469 60.53125 36.417969 C 60.300781 36.746094 60.292969 36.769531 60.398438 36.847656 C 60.457031 36.894531 60.644531 36.972656 60.8125 37.023438 C 61.371094 37.191406 61.863281 37.003906 62.390625 36.425781 C 62.921875 35.84375 63.320312 34.902344 63.640625 33.488281 C 63.851562 32.523438 63.996094 31.59375 64.28125 29.320312 C 64.878906 24.5625 65.320312 22.25 66.019531 20.230469 C 66.605469 18.527344 67.167969 17.703125 68.207031 17 C 69.210938 16.332031 69.65625 15.871094 70.007812 15.160156 C 70.101562 14.960938 70.394531 14.242188 70.652344 13.558594 C 70.90625 12.875 71.558594 11.148438 72.101562 9.722656 C 72.644531 8.292969 73.121094 6.949219 73.160156 6.734375 C 73.242188 6.296875 73.1875 6.007812 72.984375 5.664062 C 72.753906 5.289062 72.851562 5.320312 67.839844 4.171875 C 66.890625 3.953125 65.988281 3.773438 65.84375 3.773438 C 65.683594 3.773438 65.464844 3.828125 65.308594 3.90625 Z M 66.285156 6.351562 C 66.347656 6.40625 66.394531 6.496094 66.394531 6.558594 C 66.394531 6.722656 64.988281 13.308594 64.910156 13.515625 C 64.859375 13.648438 64.722656 13.683594 64.644531 13.589844 C 64.59375 13.527344 64.601562 13.363281 64.667969 12.941406 C 64.722656 12.632812 64.898438 11.480469 65.066406 10.386719 C 65.585938 6.96875 65.675781 6.46875 65.777344 6.351562 C 65.894531 6.21875 66.140625 6.21875 66.285156 6.351562 Z M 67.976562 6.59375 C 68.164062 6.761719 68.238281 6.4375 67.027344 11.050781 C 66.242188 14.070312 66.285156 13.921875 66.148438 13.921875 C 66.082031 13.921875 66.015625 13.878906 65.988281 13.824219 C 65.960938 13.738281 66.203125 12.488281 67.058594 8.339844 C 67.421875 6.589844 67.457031 6.492188 67.746094 6.492188 C 67.8125 6.492188 67.917969 6.535156 67.976562 6.59375 Z M 69.691406 7.070312 C 69.789062 7.214844 69.78125 7.257812 69.503906 8.199219 C 68.527344 11.523438 67.710938 14.199219 67.664062 14.246094 C 67.574219 14.335938 67.421875 14.234375 67.421875 14.089844 C 67.421875 14.011719 67.566406 13.324219 67.746094 12.5625 C 68.742188 8.347656 69.050781 7.132812 69.148438 7.027344 C 69.300781 6.859375 69.570312 6.882812 69.691406 7.070312 Z M 71.285156 7.519531 C 71.351562 7.585938 71.40625 7.6875 71.40625 7.742188 C 71.40625 7.910156 69.113281 14.488281 69.015625 14.585938 C 68.941406 14.65625 68.917969 14.65625 68.835938 14.578125 C 68.75 14.488281 68.792969 14.292969 69.324219 12.40625 C 70.3125 8.863281 70.6875 7.613281 70.785156 7.5 C 70.914062 7.359375 71.136719 7.367188 71.285156 7.519531 Z M 71.285156 7.519531 " fill-opacity="1" fill-rule="nonzero"/></g><g clip-path="url(#641e507186)"><path fill="#ffffff" d="M 47.835938 4.804688 C 45.503906 5.355469 44.707031 9.476562 46.277344 12.917969 C 46.898438 14.289062 48.15625 15.507812 49.363281 15.917969 C 49.832031 16.078125 50.601562 16.136719 51.058594 16.039062 C 51.976562 15.847656 52.824219 15.160156 53.277344 14.222656 C 53.679688 13.402344 53.789062 12.898438 53.789062 11.835938 C 53.789062 10.851562 53.730469 10.449219 53.410156 9.503906 C 52.761719 7.585938 51.265625 5.730469 49.828125 5.070312 C 49.167969 4.769531 48.414062 4.667969 47.835938 4.804688 Z M 46.851562 6.382812 C 46.398438 7.28125 46.160156 8.730469 46.269531 9.941406 C 46.34375 10.707031 46.476562 11.425781 46.644531 11.925781 C 46.832031 12.484375 46.839844 12.507812 46.71875 12.289062 C 46.390625 11.710938 46.035156 10.355469 45.949219 9.390625 C 45.871094 8.515625 46.105469 7.359375 46.5 6.679688 C 46.667969 6.394531 46.996094 5.949219 47.042969 5.949219 C 47.054688 5.949219 46.972656 6.140625 46.851562 6.382812 Z M 46.851562 6.382812 " fill-opacity="1" fill-rule="nonzero"/></g><g clip-path="url(#bbf9e64687)"><path fill="#ffffff" d="M 54.0625 12.320312 C 53.875 14.953125 52.183594 16.664062 50.03125 16.390625 C 48.964844 16.257812 47.773438 15.515625 46.890625 14.433594 L 46.691406 14.191406 L 46.898438 14.492188 C 47.007812 14.65625 47.328125 15.027344 47.609375 15.308594 C 48.105469 15.8125 48.460938 16.058594 49.507812 16.644531 C 50.378906 17.128906 50.921875 17.738281 51.5 18.867188 C 52.59375 21.011719 53.445312 23.988281 54.558594 29.59375 C 54.929688 31.476562 55.324219 33.125 55.582031 33.910156 C 56.152344 35.597656 57.113281 36.75 57.949219 36.75 L 58.179688 36.75 L 57.964844 36.460938 C 57.84375 36.304688 57.691406 36.066406 57.636719 35.933594 C 57.578125 35.800781 57.457031 35.644531 57.359375 35.589844 C 57.0625 35.421875 56.609375 34.925781 56.367188 34.515625 C 55.933594 33.773438 55.679688 32.910156 55.214844 30.597656 C 54.914062 29.085938 54.859375 28.664062 55.09375 29.605469 C 55.527344 31.355469 56.140625 33.253906 56.519531 34.0625 C 56.753906 34.550781 57.378906 35.523438 57.425781 35.46875 C 57.4375 35.457031 57.40625 35.300781 57.351562 35.121094 C 57.140625 34.351562 57.183594 32.511719 57.457031 30.359375 L 57.578125 29.441406 L 57.304688 28.90625 C 56.898438 28.09375 55.457031 24.96875 55.0625 24.0625 C 54.074219 21.734375 53.390625 19.6875 53.125 18.246094 C 53.070312 17.941406 53.027344 17.382812 53.023438 17 C 53.023438 16.222656 53.089844 15.90625 53.46875 15.066406 C 53.941406 14.011719 54.160156 13.042969 54.121094 12.167969 L 54.105469 11.714844 Z M 54.0625 12.320312 " fill-opacity="1" fill-rule="nonzero"/></g><g clip-path="url(#ede8d59628)"><g clip-path="url(#8e46f47818)"><g transform="matrix(1, 0, 0, 1, 42, 19)"><g clip-path="url(#3ad15c0a64)"><g clip-path="url(#7900d0f4a6)"><g clip-path="url(#b73fcc49ef)"><path fill="#451486" d="M 0.976562 0.410156 L 33.710938 0.410156 L 33.710938 20.035156 L 0.976562 20.035156 Z M 0.976562 0.410156 " fill-opacity="1" fill-rule="nonzero"/></g></g></g></g></g></g><g clip-path="url(#f015fdb03c)"><g clip-path="url(#f8c200f1ec)"><g transform="matrix(1, 0, 0, 1, 59, 29)"><g clip-path="url(#1988ad0b1e)"><g clip-path="url(#823ecf04ee)"><g clip-path="url(#434609264c)"><path fill="#451486" d="M 0.328125 19.839844 L 0.328125 0.230469 L 16.683594 0.230469 L 16.683594 19.839844 Z M 0.328125 19.839844 " fill-opacity="1" fill-rule="nonzero"/></g></g></g></g></g></g><g clip-path="url(#7829c6fb59)"><g clip-path="url(#7923fd181c)"><g transform="matrix(1, 0, 0, 1, 42, 29)"><g clip-path="url(#5b14847506)"><g clip-path="url(#8594227c97)"><g clip-path="url(#a7b537f2ee)"><path fill="#d8bdff" d="M 17.324219 0.222656 L 17.324219 19.835938 L 0.972656 19.835938 L 0.972656 0.222656 Z M 17.324219 0.222656 " fill-opacity="1" fill-rule="nonzero"/></g></g></g></g></g></g><g clip-path="url(#fe18cb72aa)"><g clip-path="url(#06655e70ce)"><g transform="matrix(1, 0, 0, 1, 42, 39)"><g clip-path="url(#7ab32aeb7f)"><g clip-path="url(#70748d544d)"><g clip-path="url(#8af4ef5a18)"><path fill="#8495d0" d="M 0.976562 0.0351562 L 33.710938 0.0351562 L 33.710938 19.65625 L 0.976562 19.65625 Z M 0.976562 0.0351562 " fill-opacity="1" fill-rule="nonzero"/></g></g></g></g></g></g><g clip-path="url(#744ce27eb3)"><g transform="matrix(1, 0, 0, 1, 19, 34)"><g clip-path="url(#6bff2bce7a)"><path fill="#c59afe" d="M 5.265625 10.960938 C 5.441406 11.113281 5.679688 11.085938 5.886719 11.027344 L 5.4375 12.242188 L 6.15625 12.652344 L 3.839844 17.316406 C 3.664062 17.78125 4.289062 18.160156 4.589844 17.710938 L 6.84375 13.160156 C 7.53125 13.507812 8.148438 14.210938 8.472656 14.910156 C 8.859375 15.738281 9.324219 17.71875 9.957031 18.230469 C 10.21875 18.441406 10.554688 18.5625 10.886719 18.589844 C 12.691406 18.730469 14.675781 18.476562 16.496094 18.589844 C 16.753906 18.59375 16.683594 18.136719 16.894531 18.097656 L 24.878906 18.078125 C 25.570312 17.90625 25.746094 16.898438 25.167969 16.496094 C 24.710938 16.179688 23.605469 16.371094 23.027344 16.367188 C 22.902344 16.363281 22.792969 16.316406 22.675781 16.316406 C 20.980469 16.304688 19.28125 16.351562 17.582031 16.296875 C 17.746094 15.957031 17.867188 15.636719 18.070312 15.316406 C 19.429688 13.171875 22.566406 12.917969 24.207031 14.875 C 24.410156 15.113281 24.625 15.578125 24.863281 15.734375 C 25.175781 15.9375 25.585938 15.929688 25.945312 15.917969 C 25.5625 14.78125 24.976562 13.710938 24.210938 12.789062 L 25.722656 11.226562 C 25.992188 11.105469 26.691406 11.382812 26.78125 10.996094 L 26.792969 4.597656 C 26.789062 4.464844 26.679688 4.359375 26.546875 4.355469 L 19.515625 4.355469 C 19.363281 4.359375 19.257812 4.488281 19.269531 4.640625 C 19.363281 6.585938 19.152344 8.628906 19.273438 10.558594 C 19.28125 10.65625 19.324219 11.101562 19.359375 11.140625 C 19.488281 11.257812 19.6875 11.1875 19.851562 11.207031 L 19.472656 11.648438 L 18.828125 11.648438 L 18.828125 10.582031 L 18.300781 10.585938 C 18.074219 11.652344 17.019531 11.914062 16.105469 12.152344 C 15.394531 12.339844 14.660156 12.480469 13.9375 12.628906 C 14.117188 13.480469 14.550781 14.351562 14.726562 15.195312 C 14.75 15.308594 14.722656 15.425781 14.742188 15.535156 C 14.808594 15.925781 14.945312 16.105469 14.777344 16.511719 C 14.445312 17.3125 13.34375 17.046875 12.671875 17.027344 C 12.320312 17.019531 11.644531 17.125 11.378906 16.941406 C 10.695312 16.472656 11.269531 15.613281 11.851562 15.355469 L 10.585938 12.042969 C 10.476562 11.585938 10.480469 11.273438 10.65625 10.835938 C 10.695312 10.738281 10.773438 10.683594 10.777344 10.582031 L 8.707031 9.738281 C 8.640625 9.628906 8.90625 9.300781 8.898438 9.226562 C 8.894531 9.1875 8.738281 9.0625 8.695312 8.996094 C 8.503906 8.6875 8.523438 8.375 8.644531 8.046875 C 8.527344 8.074219 8.484375 8.15625 8.429688 8.253906 C 8.34375 8.410156 7.957031 9.351562 7.863281 9.375 C 7.734375 9.285156 7.308594 9.238281 7.230469 9.191406 C 7.210938 9.183594 7.136719 9.015625 7.085938 8.960938 C 6.808594 8.65625 6.460938 8.445312 6.042969 8.402344 C 5.910156 8.390625 5.265625 8.363281 5.265625 8.515625 Z M 20.25 11.648438 C 20.261719 11.566406 20.601562 11.203125 20.628906 11.203125 L 24.921875 11.203125 L 23.789062 12.40625 L 22.808594 11.648438 Z M 20.25 11.648438 " fill-opacity="1" fill-rule="nonzero"/><path fill="#c59afe" d="M 12.691406 5.777344 C 12.773438 5.796875 12.777344 5.75 12.816406 5.703125 C 12.941406 5.5625 13.257812 4.960938 13.359375 4.90625 C 13.421875 4.878906 13.726562 5.070312 13.714844 5.132812 L 12.503906 6.945312 C 11.742188 7.089844 10.902344 7.070312 10.148438 7.214844 C 10.027344 7.238281 9.507812 7.40625 9.445312 7.46875 C 9.367188 7.550781 9.414062 7.53125 9.492188 7.539062 C 9.578125 7.550781 9.664062 7.535156 9.765625 7.570312 C 10.148438 7.695312 10.496094 8.167969 10.421875 8.582031 L 13.238281 8.304688 L 13.445312 8.199219 C 13.964844 7.621094 14.332031 6.886719 14.78125 6.242188 L 15.136719 6.472656 L 13.910156 8.402344 C 13.992188 8.785156 14.253906 9.140625 14.226562 9.558594 C 14.15625 9.675781 12.003906 10.308594 11.667969 10.46875 C 11.066406 10.757812 10.855469 11.320312 11.03125 11.953125 L 12.425781 15.535156 C 12.214844 15.707031 11.578125 15.972656 11.535156 16.253906 C 11.496094 16.515625 11.597656 16.570312 11.820312 16.585938 C 12.34375 16.632812 13.5 16.648438 14.003906 16.585938 C 14.613281 16.515625 14.292969 15.769531 14.328125 15.375 L 13.3125 12.316406 C 14.386719 12.039062 15.558594 11.878906 16.613281 11.546875 C 18.527344 10.949219 17.914062 9.273438 17.40625 7.800781 C 16.902344 6.347656 15.203125 2.566406 13.179688 4.289062 C 13.019531 4.425781 12.691406 4.894531 12.691406 5.089844 Z M 12.691406 5.777344 " fill-opacity="1" fill-rule="nonzero"/><g clip-path="url(#b037f9b503)"><path fill="#c59afe" d="M 7.523438 17.574219 C 7.511719 17.554688 7.414062 17.527344 7.375 17.476562 C 7.03125 17.046875 7.09375 16.394531 6.785156 15.84375 C 6.738281 15.765625 6.382812 15.226562 6.289062 15.296875 L 5.847656 16.171875 C 5.832031 16.289062 6.070312 16.65625 6.121094 16.816406 C 6.683594 18.621094 4.839844 20.152344 3.203125 19.203125 C 1.40625 18.15625 2.226562 15.40625 4.277344 15.421875 L 4.863281 14.25 C 4.855469 14.132812 4.117188 14.132812 3.996094 14.140625 C 1.464844 14.3125 0.0625 17.246094 1.5 19.347656 C 2.929688 21.441406 6.136719 21.199219 7.214844 18.914062 C 7.324219 18.6875 7.636719 17.765625 7.523438 17.574219 Z M 7.523438 17.574219 " fill-opacity="1" fill-rule="nonzero"/></g><g clip-path="url(#02fa6d9cd7)"><path fill="#c59afe" d="M 10.46875 1.867188 L 11.78125 1.644531 C 12.320312 1.707031 12.273438 2.210938 12.058594 2.589844 C 11.757812 3.128906 11.125 3.246094 10.605469 3.488281 C 10.984375 4.472656 11.222656 4.707031 12.230469 4.273438 C 12.742188 4.058594 13.503906 3.679688 13.964844 3.386719 C 14.332031 3.148438 14.34375 3 14.378906 2.554688 C 14.441406 1.765625 14.308594 1.066406 13.671875 0.554688 C 12.511719 -0.378906 10.5625 0.347656 10.46875 1.867188 Z M 10.46875 1.867188 " fill-opacity="1" fill-rule="nonzero"/></g><g clip-path="url(#10a9d64030)"><path fill="#c59afe" d="M 18.207031 18.542969 C 18.351562 19.1875 18.835938 19.777344 19.367188 20.160156 C 21.144531 21.453125 23.691406 20.660156 24.386719 18.585938 L 23.121094 18.585938 C 23.105469 18.585938 23.058594 18.523438 23.011719 18.5625 C 22.140625 19.804688 20.421875 19.78125 19.5625 18.542969 Z M 18.207031 18.542969 " fill-opacity="1" fill-rule="nonzero"/></g><path fill="#c59afe" d="M 18.472656 15.875 L 20.050781 15.875 C 20.074219 15.875 20.371094 15.660156 20.460938 15.617188 C 20.972656 15.390625 21.476562 15.382812 21.996094 15.574219 C 22.121094 15.621094 22.511719 15.875 22.542969 15.875 L 24.164062 15.875 C 23.796875 15.121094 23.058594 14.527344 22.253906 14.296875 C 20.789062 13.875 19.121094 14.460938 18.472656 15.875 Z M 18.472656 15.875 " fill-opacity="1" fill-rule="nonzero"/><path fill="#c59afe" d="M 25.722656 3.910156 L 25.722656 3.042969 C 25.683594 2.980469 25.632812 2.984375 25.570312 2.976562 C 25.296875 2.941406 24.820312 3.027344 24.496094 3.023438 C 23.273438 3.007812 21.734375 2.855469 20.539062 2.972656 C 20.472656 2.980469 20.296875 3.007812 20.296875 3.089844 L 20.296875 3.84375 L 20.363281 3.910156 Z M 25.722656 3.910156 " fill-opacity="1" fill-rule="nonzero"/><path fill="#c59afe" d="M 1.667969 13.433594 C 1.589844 13.566406 2.191406 14.078125 2.355469 14.09375 C 2.492188 14.109375 3.027344 13.84375 3.242188 13.789062 C 3.859375 13.628906 4.445312 13.613281 5.058594 13.777344 L 5.488281 12.921875 C 4.234375 12.449219 2.78125 12.730469 1.667969 13.433594 Z M 1.667969 13.433594 " fill-opacity="1" fill-rule="nonzero"/><path fill="#c59afe" d="M 8.601562 17.429688 C 8.640625 16.070312 8.039062 14.796875 7.019531 13.917969 L 6.5625 14.824219 C 6.953125 15.222656 7.285156 15.699219 7.457031 16.238281 C 7.53125 16.476562 7.570312 16.957031 7.6875 17.117188 C 7.84375 17.324219 8.347656 17.457031 8.601562 17.429688 Z M 8.601562 17.429688 " fill-opacity="1" fill-rule="nonzero"/><path fill="#c59afe" d="M 26.210938 15.25 L 26.429688 15.800781 L 29.878906 15.828125 C 30.28125 15.765625 30.085938 15.25 29.96875 15.25 Z M 26.210938 15.25 " fill-opacity="1" fill-rule="nonzero"/><path fill="#c59afe" d="M 26.355469 17.332031 C 26.398438 17.375 26.5625 17.425781 26.632812 17.433594 C 27.09375 17.484375 28.308594 17.484375 28.769531 17.433594 C 29.203125 17.382812 29.195312 16.871094 28.808594 16.8125 C 28.425781 16.75 27 16.757812 26.589844 16.808594 C 26.316406 16.839844 26.191406 17.152344 26.355469 17.332031 Z M 26.355469 17.332031 " fill-opacity="1" fill-rule="nonzero"/><path fill="#c59afe" d="M 25.453125 13.695312 L 25.71875 14.289062 L 25.785156 14.320312 C 26.3125 14.253906 27.046875 14.410156 27.546875 14.296875 C 27.800781 14.238281 27.828125 13.988281 27.699219 13.785156 C 27.679688 13.761719 27.542969 13.695312 27.523438 13.695312 Z M 25.453125 13.695312 " fill-opacity="1" fill-rule="nonzero"/><path fill="#c59afe" d="M 9.636719 8.011719 C 8.96875 7.859375 8.753906 8.773438 9.316406 8.953125 C 10.011719 9.171875 10.21875 8.144531 9.636719 8.011719 Z M 9.636719 8.011719 " fill-opacity="1" fill-rule="nonzero"/><g clip-path="url(#83d8d29a5f)"><path fill="#c59afe" d="M 31.84375 15.308594 C 31.765625 15.234375 31.066406 15.226562 30.949219 15.261719 C 30.707031 15.332031 30.75 15.757812 31.039062 15.820312 C 31.160156 15.847656 31.566406 15.847656 31.6875 15.820312 C 31.921875 15.769531 32.015625 15.472656 31.84375 15.308594 Z M 31.84375 15.308594 " fill-opacity="1" fill-rule="nonzero"/></g></g></g></g><g transform="matrix(1, 0, 0, 1, 86, 22)"><g clip-path="url(#5fd18b5083)"><g fill="#451486" fill-opacity="0.0902"><g transform="translate(2.21847, 18.895392)"><g><path d="M 12.90625 -17.109375 L 12.90625 -13.859375 L 5.578125 -13.859375 L 5.578125 -9.96875 L 11.921875 -9.96875 L 11.921875 -6.71875 L 5.578125 -6.71875 L 5.578125 0 L 2.203125 0 L 2.203125 -17.109375 Z M 12.90625 -17.109375 "/></g></g></g><g fill="#451486" fill-opacity="0.0902"><g transform="translate(14.468238, 18.895392)"><g><path d="M 1.15625 -8.53125 C 1.15625 -10.082031 1.546875 -11.53125 2.328125 -12.875 C 3.117188 -14.226562 4.179688 -15.300781 5.515625 -16.09375 C 6.859375 -16.894531 8.3125 -17.296875 9.875 -17.296875 C 11.445312 -17.296875 12.898438 -16.894531 14.234375 -16.09375 C 15.578125 -15.300781 16.644531 -14.226562 17.4375 -12.875 C 18.238281 -11.53125 18.640625 -10.082031 18.640625 -8.53125 C 18.640625 -6.945312 18.238281 -5.488281 17.4375 -4.15625 C 16.644531 -2.820312 15.578125 -1.765625 14.234375 -0.984375 C 12.898438 -0.203125 11.445312 0.1875 9.875 0.1875 C 8.300781 0.1875 6.847656 -0.203125 5.515625 -0.984375 C 4.179688 -1.765625 3.117188 -2.820312 2.328125 -4.15625 C 1.546875 -5.488281 1.15625 -6.945312 1.15625 -8.53125 Z M 4.65625 -8.53125 C 4.65625 -7.539062 4.890625 -6.625 5.359375 -5.78125 C 5.828125 -4.945312 6.46875 -4.285156 7.28125 -3.796875 C 8.101562 -3.304688 9.007812 -3.0625 10 -3.0625 C 10.957031 -3.0625 11.832031 -3.304688 12.625 -3.796875 C 13.414062 -4.285156 14.035156 -4.941406 14.484375 -5.765625 C 14.929688 -6.597656 15.15625 -7.519531 15.15625 -8.53125 C 15.15625 -9.550781 14.921875 -10.476562 14.453125 -11.3125 C 13.992188 -12.15625 13.363281 -12.820312 12.5625 -13.3125 C 11.769531 -13.800781 10.882812 -14.046875 9.90625 -14.046875 C 8.925781 -14.046875 8.035156 -13.800781 7.234375 -13.3125 C 6.441406 -12.820312 5.8125 -12.15625 5.34375 -11.3125 C 4.882812 -10.476562 4.65625 -9.550781 4.65625 -8.53125 Z M 4.65625 -8.53125 "/></g></g></g><g fill="#451486" fill-opacity="0.0902"><g transform="translate(32.575731, 18.895392)"><g><path d="M 1.15625 -8.53125 C 1.15625 -10.082031 1.546875 -11.53125 2.328125 -12.875 C 3.117188 -14.226562 4.179688 -15.300781 5.515625 -16.09375 C 6.859375 -16.894531 8.3125 -17.296875 9.875 -17.296875 C 11.445312 -17.296875 12.898438 -16.894531 14.234375 -16.09375 C 15.578125 -15.300781 16.644531 -14.226562 17.4375 -12.875 C 18.238281 -11.53125 18.640625 -10.082031 18.640625 -8.53125 C 18.640625 -6.945312 18.238281 -5.488281 17.4375 -4.15625 C 16.644531 -2.820312 15.578125 -1.765625 14.234375 -0.984375 C 12.898438 -0.203125 11.445312 0.1875 9.875 0.1875 C 8.300781 0.1875 6.847656 -0.203125 5.515625 -0.984375 C 4.179688 -1.765625 3.117188 -2.820312 2.328125 -4.15625 C 1.546875 -5.488281 1.15625 -6.945312 1.15625 -8.53125 Z M 4.65625 -8.53125 C 4.65625 -7.539062 4.890625 -6.625 5.359375 -5.78125 C 5.828125 -4.945312 6.46875 -4.285156 7.28125 -3.796875 C 8.101562 -3.304688 9.007812 -3.0625 10 -3.0625 C 10.957031 -3.0625 11.832031 -3.304688 12.625 -3.796875 C 13.414062 -4.285156 14.035156 -4.941406 14.484375 -5.765625 C 14.929688 -6.597656 15.15625 -7.519531 15.15625 -8.53125 C 15.15625 -9.550781 14.921875 -10.476562 14.453125 -11.3125 C 13.992188 -12.15625 13.363281 -12.820312 12.5625 -13.3125 C 11.769531 -13.800781 10.882812 -14.046875 9.90625 -14.046875 C 8.925781 -14.046875 8.035156 -13.800781 7.234375 -13.3125 C 6.441406 -12.820312 5.8125 -12.15625 5.34375 -11.3125 C 4.882812 -10.476562 4.65625 -9.550781 4.65625 -8.53125 Z M 4.65625 -8.53125 "/></g></g></g><g fill="#451486" fill-opacity="0.0902"><g transform="translate(50.683224, 18.895392)"><g><path d="M 2.203125 -17.109375 L 7.328125 -17.109375 C 9.515625 -17.109375 11.3125 -16.6875 12.71875 -15.84375 C 14.125 -15 15.148438 -13.90625 15.796875 -12.5625 C 16.441406 -11.226562 16.765625 -9.789062 16.765625 -8.25 C 16.765625 -6.613281 16.375 -5.164062 15.59375 -3.90625 C 14.820312 -2.644531 13.78125 -1.675781 12.46875 -1 C 11.164062 -0.332031 9.726562 0 8.15625 0 L 2.203125 0 Z M 7.578125 -3.25 C 9.328125 -3.25 10.710938 -3.695312 11.734375 -4.59375 C 12.765625 -5.5 13.28125 -6.796875 13.28125 -8.484375 C 13.28125 -9.847656 12.992188 -10.929688 12.421875 -11.734375 C 11.859375 -12.546875 11.203125 -13.101562 10.453125 -13.40625 C 9.703125 -13.71875 8.992188 -13.875 8.328125 -13.875 L 5.578125 -13.875 L 5.578125 -3.25 Z M 7.578125 -3.25 "/></g></g></g><g clip-path="url(#f03b6f995e)"><g fill="#c59dfe" fill-opacity="1"><g transform="translate(1.190987, 17.867908)"><g><path d="M 12.90625 -17.109375 L 12.90625 -13.859375 L 5.578125 -13.859375 L 5.578125 -9.96875 L 11.921875 -9.96875 L 11.921875 -6.71875 L 5.578125 -6.71875 L 5.578125 0 L 2.203125 0 L 2.203125 -17.109375 Z M 12.90625 -17.109375 "/></g></g></g></g><g clip-path="url(#a85011d53c)"><g fill="#c59dfe" fill-opacity="1"><g transform="translate(13.440755, 17.867908)"><g><path d="M 1.15625 -8.53125 C 1.15625 -10.082031 1.546875 -11.53125 2.328125 -12.875 C 3.117188 -14.226562 4.179688 -15.300781 5.515625 -16.09375 C 6.859375 -16.894531 8.3125 -17.296875 9.875 -17.296875 C 11.445312 -17.296875 12.898438 -16.894531 14.234375 -16.09375 C 15.578125 -15.300781 16.644531 -14.226562 17.4375 -12.875 C 18.238281 -11.53125 18.640625 -10.082031 18.640625 -8.53125 C 18.640625 -6.945312 18.238281 -5.488281 17.4375 -4.15625 C 16.644531 -2.820312 15.578125 -1.765625 14.234375 -0.984375 C 12.898438 -0.203125 11.445312 0.1875 9.875 0.1875 C 8.300781 0.1875 6.847656 -0.203125 5.515625 -0.984375 C 4.179688 -1.765625 3.117188 -2.820312 2.328125 -4.15625 C 1.546875 -5.488281 1.15625 -6.945312 1.15625 -8.53125 Z M 4.65625 -8.53125 C 4.65625 -7.539062 4.890625 -6.625 5.359375 -5.78125 C 5.828125 -4.945312 6.46875 -4.285156 7.28125 -3.796875 C 8.101562 -3.304688 9.007812 -3.0625 10 -3.0625 C 10.957031 -3.0625 11.832031 -3.304688 12.625 -3.796875 C 13.414062 -4.285156 14.035156 -4.941406 14.484375 -5.765625 C 14.929688 -6.597656 15.15625 -7.519531 15.15625 -8.53125 C 15.15625 -9.550781 14.921875 -10.476562 14.453125 -11.3125 C 13.992188 -12.15625 13.363281 -12.820312 12.5625 -13.3125 C 11.769531 -13.800781 10.882812 -14.046875 9.90625 -14.046875 C 8.925781 -14.046875 8.035156 -13.800781 7.234375 -13.3125 C 6.441406 -12.820312 5.8125 -12.15625 5.34375 -11.3125 C 4.882812 -10.476562 4.65625 -9.550781 4.65625 -8.53125 Z M 4.65625 -8.53125 "/></g></g></g></g><g clip-path="url(#254d75292f)"><g fill="#c59dfe" fill-opacity="1"><g transform="translate(31.548248, 17.867908)"><g><path d="M 1.15625 -8.53125 C 1.15625 -10.082031 1.546875 -11.53125 2.328125 -12.875 C 3.117188 -14.226562 4.179688 -15.300781 5.515625 -16.09375 C 6.859375 -16.894531 8.3125 -17.296875 9.875 -17.296875 C 11.445312 -17.296875 12.898438 -16.894531 14.234375 -16.09375 C 15.578125 -15.300781 16.644531 -14.226562 17.4375 -12.875 C 18.238281 -11.53125 18.640625 -10.082031 18.640625 -8.53125 C 18.640625 -6.945312 18.238281 -5.488281 17.4375 -4.15625 C 16.644531 -2.820312 15.578125 -1.765625 14.234375 -0.984375 C 12.898438 -0.203125 11.445312 0.1875 9.875 0.1875 C 8.300781 0.1875 6.847656 -0.203125 5.515625 -0.984375 C 4.179688 -1.765625 3.117188 -2.820312 2.328125 -4.15625 C 1.546875 -5.488281 1.15625 -6.945312 1.15625 -8.53125 Z M 4.65625 -8.53125 C 4.65625 -7.539062 4.890625 -6.625 5.359375 -5.78125 C 5.828125 -4.945312 6.46875 -4.285156 7.28125 -3.796875 C 8.101562 -3.304688 9.007812 -3.0625 10 -3.0625 C 10.957031 -3.0625 11.832031 -3.304688 12.625 -3.796875 C 13.414062 -4.285156 14.035156 -4.941406 14.484375 -5.765625 C 14.929688 -6.597656 15.15625 -7.519531 15.15625 -8.53125 C 15.15625 -9.550781 14.921875 -10.476562 14.453125 -11.3125 C 13.992188 -12.15625 13.363281 -12.820312 12.5625 -13.3125 C 11.769531 -13.800781 10.882812 -14.046875 9.90625 -14.046875 C 8.925781 -14.046875 8.035156 -13.800781 7.234375 -13.3125 C 6.441406 -12.820312 5.8125 -12.15625 5.34375 -11.3125 C 4.882812 -10.476562 4.65625 -9.550781 4.65625 -8.53125 Z M 4.65625 -8.53125 "/></g></g></g></g><g clip-path="url(#eaf93dc216)"><g fill="#c59dfe" fill-opacity="1"><g transform="translate(49.655742, 17.867908)"><g><path d="M 2.203125 -17.109375 L 7.328125 -17.109375 C 9.515625 -17.109375 11.3125 -16.6875 12.71875 -15.84375 C 14.125 -15 15.148438 -13.90625 15.796875 -12.5625 C 16.441406 -11.226562 16.765625 -9.789062 16.765625 -8.25 C 16.765625 -6.613281 16.375 -5.164062 15.59375 -3.90625 C 14.820312 -2.644531 13.78125 -1.675781 12.46875 -1 C 11.164062 -0.332031 9.726562 0 8.15625 0 L 2.203125 0 Z M 7.578125 -3.25 C 9.328125 -3.25 10.710938 -3.695312 11.734375 -4.59375 C 12.765625 -5.5 13.28125 -6.796875 13.28125 -8.484375 C 13.28125 -9.847656 12.992188 -10.929688 12.421875 -11.734375 C 11.859375 -12.546875 11.203125 -13.101562 10.453125 -13.40625 C 9.703125 -13.71875 8.992188 -13.875 8.328125 -13.875 L 5.578125 -13.875 L 5.578125 -3.25 Z M 7.578125 -3.25 "/></g></g></g></g></g></g><g transform="matrix(1, 0, 0, 1, 153, 21)"><g clip-path="url(#8e8b974cbb)"><g fill="#ffffff" fill-opacity="0.4"><g transform="translate(1.824415, 19.691842)"><g><path d="M 13.875 -17.109375 L 13.875 -13.859375 L 5.578125 -13.859375 L 5.578125 -10.203125 L 12.921875 -10.203125 L 12.921875 -6.953125 L 5.578125 -6.953125 L 5.578125 -3.25 L 14.203125 -3.25 L 14.203125 0 L 2.203125 0 L 2.203125 -17.109375 Z M 13.875 -17.109375 "/></g></g></g><g fill="#ffffff" fill-opacity="0.4"><g transform="translate(15.602826, 19.691842)"><g><path d="M 11.921875 0 L 8.09375 -5.90625 L 4.765625 0 L 0.578125 0 L 6.1875 -8.828125 L 0.8125 -17.109375 L 5.109375 -17.109375 L 8.8125 -11.4375 L 12.015625 -17.109375 L 16.109375 -17.109375 L 10.671875 -8.609375 L 16.28125 0 Z M 11.921875 0 "/></g></g></g><g fill="#ffffff" fill-opacity="0.4"><g transform="translate(30.752202, 19.691842)"><g><path d="M 7.390625 -17.109375 C 9.484375 -17.109375 11.101562 -16.59375 12.25 -15.5625 C 13.394531 -14.53125 13.96875 -13.125 13.96875 -11.34375 C 13.96875 -10.320312 13.769531 -9.363281 13.375 -8.46875 C 12.976562 -7.582031 12.332031 -6.851562 11.4375 -6.28125 C 10.550781 -5.707031 9.40625 -5.421875 8 -5.421875 L 5.578125 -5.421875 L 5.578125 0 L 2.203125 0 L 2.203125 -17.109375 Z M 7.96875 -8.703125 C 8.601562 -8.703125 9.113281 -8.84375 9.5 -9.125 C 9.894531 -9.414062 10.175781 -9.753906 10.34375 -10.140625 C 10.519531 -10.523438 10.609375 -10.894531 10.609375 -11.25 C 10.609375 -11.851562 10.425781 -12.4375 10.0625 -13 C 9.707031 -13.570312 9.019531 -13.859375 8 -13.859375 L 5.578125 -13.859375 L 5.578125 -8.703125 Z M 7.96875 -8.703125 "/></g></g></g><g fill="#ffffff" fill-opacity="0.4"><g transform="translate(43.833521, 19.691842)"><g><path d="M 11.4375 0 L 7.828125 -5.4375 L 5.578125 -5.4375 L 5.578125 0 L 2.203125 0 L 2.203125 -17.109375 L 7.390625 -17.109375 C 9.515625 -17.109375 11.160156 -16.59375 12.328125 -15.5625 C 13.503906 -14.53125 14.09375 -13.125 14.09375 -11.34375 C 14.09375 -10.289062 13.867188 -9.300781 13.421875 -8.375 C 12.984375 -7.457031 12.304688 -6.734375 11.390625 -6.203125 L 15.375 0 Z M 5.578125 -8.703125 L 7.96875 -8.703125 C 8.882812 -8.703125 9.550781 -8.96875 9.96875 -9.5 C 10.394531 -10.03125 10.609375 -10.609375 10.609375 -11.234375 C 10.609375 -11.847656 10.425781 -12.4375 10.0625 -13 C 9.707031 -13.570312 9.019531 -13.859375 8 -13.859375 L 5.578125 -13.859375 Z M 5.578125 -8.703125 "/></g></g></g><g fill="#ffffff" fill-opacity="0.4"><g transform="translate(58.076665, 19.691842)"><g><path d="M 13.875 -17.109375 L 13.875 -13.859375 L 5.578125 -13.859375 L 5.578125 -10.203125 L 12.921875 -10.203125 L 12.921875 -6.953125 L 5.578125 -6.953125 L 5.578125 -3.25 L 14.203125 -3.25 L 14.203125 0 L 2.203125 0 L 2.203125 -17.109375 Z M 13.875 -17.109375 "/></g></g></g><g fill="#ffffff" fill-opacity="0.4"><g transform="translate(71.855076, 19.691842)"><g><path d="M 11.34375 -12.96875 C 9.851562 -13.789062 8.5625 -14.203125 7.46875 -14.203125 C 6.71875 -14.203125 6.132812 -14.054688 5.71875 -13.765625 C 5.3125 -13.472656 5.109375 -13.03125 5.109375 -12.4375 C 5.109375 -11.894531 5.40625 -11.414062 6 -11 C 6.601562 -10.59375 7.398438 -10.203125 8.390625 -9.828125 C 9.203125 -9.535156 9.894531 -9.195312 10.46875 -8.8125 C 11.039062 -8.4375 11.515625 -7.914062 11.890625 -7.25 C 12.273438 -6.582031 12.46875 -5.738281 12.46875 -4.71875 C 12.46875 -3.832031 12.238281 -3.015625 11.78125 -2.265625 C 11.320312 -1.515625 10.648438 -0.914062 9.765625 -0.46875 C 8.878906 -0.03125 7.828125 0.1875 6.609375 0.1875 C 5.578125 0.1875 4.554688 0.0351562 3.546875 -0.265625 C 2.546875 -0.566406 1.613281 -1.03125 0.75 -1.65625 L 2.234375 -4.28125 C 2.816406 -3.84375 3.488281 -3.484375 4.25 -3.203125 C 5.007812 -2.929688 5.691406 -2.796875 6.296875 -2.796875 C 7.015625 -2.796875 7.632812 -2.945312 8.15625 -3.25 C 8.6875 -3.550781 8.953125 -4.039062 8.953125 -4.71875 C 8.953125 -5.601562 8.125 -6.367188 6.46875 -7.015625 C 5.488281 -7.410156 4.671875 -7.785156 4.015625 -8.140625 C 3.367188 -8.492188 2.804688 -9.003906 2.328125 -9.671875 C 1.859375 -10.335938 1.625 -11.175781 1.625 -12.1875 C 1.625 -13.65625 2.109375 -14.835938 3.078125 -15.734375 C 4.046875 -16.640625 5.335938 -17.128906 6.953125 -17.203125 C 8.222656 -17.203125 9.285156 -17.054688 10.140625 -16.765625 C 10.992188 -16.484375 11.820312 -16.078125 12.625 -15.546875 Z M 11.34375 -12.96875 "/></g></g></g><g fill="#ffffff" fill-opacity="0.4"><g transform="translate(83.704844, 19.691842)"><g><path d="M 11.34375 -12.96875 C 9.851562 -13.789062 8.5625 -14.203125 7.46875 -14.203125 C 6.71875 -14.203125 6.132812 -14.054688 5.71875 -13.765625 C 5.3125 -13.472656 5.109375 -13.03125 5.109375 -12.4375 C 5.109375 -11.894531 5.40625 -11.414062 6 -11 C 6.601562 -10.59375 7.398438 -10.203125 8.390625 -9.828125 C 9.203125 -9.535156 9.894531 -9.195312 10.46875 -8.8125 C 11.039062 -8.4375 11.515625 -7.914062 11.890625 -7.25 C 12.273438 -6.582031 12.46875 -5.738281 12.46875 -4.71875 C 12.46875 -3.832031 12.238281 -3.015625 11.78125 -2.265625 C 11.320312 -1.515625 10.648438 -0.914062 9.765625 -0.46875 C 8.878906 -0.03125 7.828125 0.1875 6.609375 0.1875 C 5.578125 0.1875 4.554688 0.0351562 3.546875 -0.265625 C 2.546875 -0.566406 1.613281 -1.03125 0.75 -1.65625 L 2.234375 -4.28125 C 2.816406 -3.84375 3.488281 -3.484375 4.25 -3.203125 C 5.007812 -2.929688 5.691406 -2.796875 6.296875 -2.796875 C 7.015625 -2.796875 7.632812 -2.945312 8.15625 -3.25 C 8.6875 -3.550781 8.953125 -4.039062 8.953125 -4.71875 C 8.953125 -5.601562 8.125 -6.367188 6.46875 -7.015625 C 5.488281 -7.410156 4.671875 -7.785156 4.015625 -8.140625 C 3.367188 -8.492188 2.804688 -9.003906 2.328125 -9.671875 C 1.859375 -10.335938 1.625 -11.175781 1.625 -12.1875 C 1.625 -13.65625 2.109375 -14.835938 3.078125 -15.734375 C 4.046875 -16.640625 5.335938 -17.128906 6.953125 -17.203125 C 8.222656 -17.203125 9.285156 -17.054688 10.140625 -16.765625 C 10.992188 -16.484375 11.820312 -16.078125 12.625 -15.546875 Z M 11.34375 -12.96875 "/></g></g></g><g fill="#ffffff" fill-opacity="1"><g transform="translate(0.796939, 18.664361)"><g><path d="M 13.875 -17.109375 L 13.875 -13.859375 L 5.578125 -13.859375 L 5.578125 -10.203125 L 12.921875 -10.203125 L 12.921875 -6.953125 L 5.578125 -6.953125 L 5.578125 -3.25 L 14.203125 -3.25 L 14.203125 0 L 2.203125 0 L 2.203125 -17.109375 Z M 13.875 -17.109375 "/></g></g></g><g fill="#ffffff" fill-opacity="1"><g transform="translate(14.57535, 18.664361)"><g><path d="M 11.921875 0 L 8.09375 -5.90625 L 4.765625 0 L 0.578125 0 L 6.1875 -8.828125 L 0.8125 -17.109375 L 5.109375 -17.109375 L 8.8125 -11.4375 L 12.015625 -17.109375 L 16.109375 -17.109375 L 10.671875 -8.609375 L 16.28125 0 Z M 11.921875 0 "/></g></g></g><g fill="#ffffff" fill-opacity="1"><g transform="translate(29.724726, 18.664361)"><g><path d="M 7.390625 -17.109375 C 9.484375 -17.109375 11.101562 -16.59375 12.25 -15.5625 C 13.394531 -14.53125 13.96875 -13.125 13.96875 -11.34375 C 13.96875 -10.320312 13.769531 -9.363281 13.375 -8.46875 C 12.976562 -7.582031 12.332031 -6.851562 11.4375 -6.28125 C 10.550781 -5.707031 9.40625 -5.421875 8 -5.421875 L 5.578125 -5.421875 L 5.578125 0 L 2.203125 0 L 2.203125 -17.109375 Z M 7.96875 -8.703125 C 8.601562 -8.703125 9.113281 -8.84375 9.5 -9.125 C 9.894531 -9.414062 10.175781 -9.753906 10.34375 -10.140625 C 10.519531 -10.523438 10.609375 -10.894531 10.609375 -11.25 C 10.609375 -11.851562 10.425781 -12.4375 10.0625 -13 C 9.707031 -13.570312 9.019531 -13.859375 8 -13.859375 L 5.578125 -13.859375 L 5.578125 -8.703125 Z M 7.96875 -8.703125 "/></g></g></g><g fill="#ffffff" fill-opacity="1"><g transform="translate(42.806045, 18.664361)"><g><path d="M 11.4375 0 L 7.828125 -5.4375 L 5.578125 -5.4375 L 5.578125 0 L 2.203125 0 L 2.203125 -17.109375 L 7.390625 -17.109375 C 9.515625 -17.109375 11.160156 -16.59375 12.328125 -15.5625 C 13.503906 -14.53125 14.09375 -13.125 14.09375 -11.34375 C 14.09375 -10.289062 13.867188 -9.300781 13.421875 -8.375 C 12.984375 -7.457031 12.304688 -6.734375 11.390625 -6.203125 L 15.375 0 Z M 5.578125 -8.703125 L 7.96875 -8.703125 C 8.882812 -8.703125 9.550781 -8.96875 9.96875 -9.5 C 10.394531 -10.03125 10.609375 -10.609375 10.609375 -11.234375 C 10.609375 -11.847656 10.425781 -12.4375 10.0625 -13 C 9.707031 -13.570312 9.019531 -13.859375 8 -13.859375 L 5.578125 -13.859375 Z M 5.578125 -8.703125 "/></g></g></g><g fill="#ffffff" fill-opacity="1"><g transform="translate(57.04919, 18.664361)"><g><path d="M 13.875 -17.109375 L 13.875 -13.859375 L 5.578125 -13.859375 L 5.578125 -10.203125 L 12.921875 -10.203125 L 12.921875 -6.953125 L 5.578125 -6.953125 L 5.578125 -3.25 L 14.203125 -3.25 L 14.203125 0 L 2.203125 0 L 2.203125 -17.109375 Z M 13.875 -17.109375 "/></g></g></g><g fill="#ffffff" fill-opacity="1"><g transform="translate(70.8276, 18.664361)"><g><path d="M 11.34375 -12.96875 C 9.851562 -13.789062 8.5625 -14.203125 7.46875 -14.203125 C 6.71875 -14.203125 6.132812 -14.054688 5.71875 -13.765625 C 5.3125 -13.472656 5.109375 -13.03125 5.109375 -12.4375 C 5.109375 -11.894531 5.40625 -11.414062 6 -11 C 6.601562 -10.59375 7.398438 -10.203125 8.390625 -9.828125 C 9.203125 -9.535156 9.894531 -9.195312 10.46875 -8.8125 C 11.039062 -8.4375 11.515625 -7.914062 11.890625 -7.25 C 12.273438 -6.582031 12.46875 -5.738281 12.46875 -4.71875 C 12.46875 -3.832031 12.238281 -3.015625 11.78125 -2.265625 C 11.320312 -1.515625 10.648438 -0.914062 9.765625 -0.46875 C 8.878906 -0.03125 7.828125 0.1875 6.609375 0.1875 C 5.578125 0.1875 4.554688 0.0351562 3.546875 -0.265625 C 2.546875 -0.566406 1.613281 -1.03125 0.75 -1.65625 L 2.234375 -4.28125 C 2.816406 -3.84375 3.488281 -3.484375 4.25 -3.203125 C 5.007812 -2.929688 5.691406 -2.796875 6.296875 -2.796875 C 7.015625 -2.796875 7.632812 -2.945312 8.15625 -3.25 C 8.6875 -3.550781 8.953125 -4.039062 8.953125 -4.71875 C 8.953125 -5.601562 8.125 -6.367188 6.46875 -7.015625 C 5.488281 -7.410156 4.671875 -7.785156 4.015625 -8.140625 C 3.367188 -8.492188 2.804688 -9.003906 2.328125 -9.671875 C 1.859375 -10.335938 1.625 -11.175781 1.625 -12.1875 C 1.625 -13.65625 2.109375 -14.835938 3.078125 -15.734375 C 4.046875 -16.640625 5.335938 -17.128906 6.953125 -17.203125 C 8.222656 -17.203125 9.285156 -17.054688 10.140625 -16.765625 C 10.992188 -16.484375 11.820312 -16.078125 12.625 -15.546875 Z M 11.34375 -12.96875 "/></g></g></g><g fill="#ffffff" fill-opacity="1"><g transform="translate(82.677368, 18.664361)"><g><path d="M 11.34375 -12.96875 C 9.851562 -13.789062 8.5625 -14.203125 7.46875 -14.203125 C 6.71875 -14.203125 6.132812 -14.054688 5.71875 -13.765625 C 5.3125 -13.472656 5.109375 -13.03125 5.109375 -12.4375 C 5.109375 -11.894531 5.40625 -11.414062 6 -11 C 6.601562 -10.59375 7.398438 -10.203125 8.390625 -9.828125 C 9.203125 -9.535156 9.894531 -9.195312 10.46875 -8.8125 C 11.039062 -8.4375 11.515625 -7.914062 11.890625 -7.25 C 12.273438 -6.582031 12.46875 -5.738281 12.46875 -4.71875 C 12.46875 -3.832031 12.238281 -3.015625 11.78125 -2.265625 C 11.320312 -1.515625 10.648438 -0.914062 9.765625 -0.46875 C 8.878906 -0.03125 7.828125 0.1875 6.609375 0.1875 C 5.578125 0.1875 4.554688 0.0351562 3.546875 -0.265625 C 2.546875 -0.566406 1.613281 -1.03125 0.75 -1.65625 L 2.234375 -4.28125 C 2.816406 -3.84375 3.488281 -3.484375 4.25 -3.203125 C 5.007812 -2.929688 5.691406 -2.796875 6.296875 -2.796875 C 7.015625 -2.796875 7.632812 -2.945312 8.15625 -3.25 C 8.6875 -3.550781 8.953125 -4.039062 8.953125 -4.71875 C 8.953125 -5.601562 8.125 -6.367188 6.46875 -7.015625 C 5.488281 -7.410156 4.671875 -7.785156 4.015625 -8.140625 C 3.367188 -8.492188 2.804688 -9.003906 2.328125 -9.671875 C 1.859375 -10.335938 1.625 -11.175781 1.625 -12.1875 C 1.625 -13.65625 2.109375 -14.835938 3.078125 -15.734375 C 4.046875 -16.640625 5.335938 -17.128906 6.953125 -17.203125 C 8.222656 -17.203125 9.285156 -17.054688 10.140625 -16.765625 C 10.992188 -16.484375 11.820312 -16.078125 12.625 -15.546875 Z M 11.34375 -12.96875 "/></g></g></g></g></g></svg>