<svg xmlns="http://www.w3.org/2000/svg" xmlns:xlink="http://www.w3.org/1999/xlink" width="203" zoomAndPan="magnify" viewBox="0 0 152.25 36.000001" height="48" preserveAspectRatio="xMidYMid meet" version="1.0"><defs><g/><clipPath id="47b32e1de1"><path d="M 30 0.996094 L 34 0.996094 L 34 21.429688 L 30 21.429688 Z M 30 0.996094 " clip-rule="nonzero"/></clipPath><clipPath id="c609b8335d"><path d="M 32 2 L 39.96875 2 L 39.96875 21.429688 L 32 21.429688 Z M 32 2 " clip-rule="nonzero"/></clipPath><clipPath id="a1aa0660c3"><path d="M 23.914062 2 L 29 2 L 29 10 L 23.914062 10 Z M 23.914062 2 " clip-rule="nonzero"/></clipPath><clipPath id="ab0d9de2cf"><path d="M 24 6 L 32 6 L 32 21.429688 L 24 21.429688 Z M 24 6 " clip-rule="nonzero"/></clipPath><clipPath id="22e422d6ab"><path d="M 22.484375 11.238281 L 41.433594 11.238281 L 41.433594 22.597656 L 22.484375 22.597656 Z M 22.484375 11.238281 " clip-rule="nonzero"/></clipPath><clipPath id="a13fd908bf"><path d="M 31.949219 11.238281 L 41.417969 16.917969 L 31.949219 22.597656 L 22.484375 16.917969 Z M 31.949219 11.238281 " clip-rule="nonzero"/></clipPath><clipPath id="dd45a20fe7"><path d="M 0.484375 0.238281 L 19.433594 0.238281 L 19.433594 11.597656 L 0.484375 11.597656 Z M 0.484375 0.238281 " clip-rule="nonzero"/></clipPath><clipPath id="9b36d8e8ee"><path d="M 9.949219 0.238281 L 19.417969 5.917969 L 9.949219 11.597656 L 0.484375 5.917969 Z M 9.949219 0.238281 " clip-rule="nonzero"/></clipPath><clipPath id="625a53ae63"><rect x="0" width="20" y="0" height="12"/></clipPath><clipPath id="4773877dd7"><path d="M 31.949219 16.882812 L 41.417969 16.882812 L 41.417969 28.273438 L 31.949219 28.273438 Z M 31.949219 16.882812 " clip-rule="nonzero"/></clipPath><clipPath id="c52b943196"><path d="M 31.949219 22.59375 L 41.417969 16.914062 L 41.417969 28.273438 Z M 31.949219 22.59375 " clip-rule="nonzero"/></clipPath><clipPath id="4792fecd13"><path d="M 0.949219 0.882812 L 10.417969 0.882812 L 10.417969 12.273438 L 0.949219 12.273438 Z M 0.949219 0.882812 " clip-rule="nonzero"/></clipPath><clipPath id="0d8fa66d03"><path d="M 0.949219 6.59375 L 10.417969 0.914062 L 10.417969 12.273438 Z M 0.949219 6.59375 " clip-rule="nonzero"/></clipPath><clipPath id="13b0fe4594"><rect x="0" width="11" y="0" height="13"/></clipPath><clipPath id="4d70013a54"><path d="M 22.480469 16.917969 L 31.945312 16.917969 L 31.945312 28.308594 L 22.480469 28.308594 Z M 22.480469 16.917969 " clip-rule="nonzero"/></clipPath><clipPath id="72555a6e31"><path d="M 31.945312 22.597656 L 22.480469 28.28125 L 22.480469 16.917969 Z M 31.945312 22.597656 " clip-rule="nonzero"/></clipPath><clipPath id="a759a607b9"><path d="M 0.480469 0.917969 L 9.945312 0.917969 L 9.945312 12.308594 L 0.480469 12.308594 Z M 0.480469 0.917969 " clip-rule="nonzero"/></clipPath><clipPath id="9ee45f8cc7"><path d="M 9.945312 6.597656 L 0.480469 12.28125 L 0.480469 0.917969 Z M 9.945312 6.597656 " clip-rule="nonzero"/></clipPath><clipPath id="84bd81cd2f"><rect x="0" width="10" y="0" height="13"/></clipPath><clipPath id="3e00a645c1"><path d="M 22.484375 22.597656 L 41.433594 22.597656 L 41.433594 33.960938 L 22.484375 33.960938 Z M 22.484375 22.597656 " clip-rule="nonzero"/></clipPath><clipPath id="8039934fe5"><path d="M 31.949219 22.597656 L 41.417969 28.277344 L 31.949219 33.960938 L 22.484375 28.277344 Z M 31.949219 22.597656 " clip-rule="nonzero"/></clipPath><clipPath id="e36355fec3"><path d="M 0.484375 0.597656 L 19.433594 0.597656 L 19.433594 11.960938 L 0.484375 11.960938 Z M 0.484375 0.597656 " clip-rule="nonzero"/></clipPath><clipPath id="e8d440b5d9"><path d="M 9.949219 0.597656 L 19.417969 6.277344 L 9.949219 11.960938 L 0.484375 6.277344 Z M 9.949219 0.597656 " clip-rule="nonzero"/></clipPath><clipPath id="69b2a5facb"><rect x="0" width="20" y="0" height="12"/></clipPath><clipPath id="5803d5921c"><path d="M 9.136719 19.761719 L 27.378906 19.761719 L 27.378906 31.4375 L 9.136719 31.4375 Z M 9.136719 19.761719 " clip-rule="nonzero"/></clipPath><clipPath id="4b14cfa527"><path d="M 0.136719 8 L 4 8 L 4 12.4375 L 0.136719 12.4375 Z M 0.136719 8 " clip-rule="nonzero"/></clipPath><clipPath id="7ec8b1e635"><path d="M 5 0.761719 L 8 0.761719 L 8 4 L 5 4 Z M 5 0.761719 " clip-rule="nonzero"/></clipPath><clipPath id="2ff94f100e"><path d="M 10 11 L 14 11 L 14 12.4375 L 10 12.4375 Z M 10 11 " clip-rule="nonzero"/></clipPath><clipPath id="f87ce8b18b"><path d="M 0.136719 8 L 3 8 L 3 9 L 0.136719 9 Z M 0.136719 8 " clip-rule="nonzero"/></clipPath><clipPath id="0a06bf8176"><path d="M 17 9 L 18.082031 9 L 18.082031 10 L 17 10 Z M 17 9 " clip-rule="nonzero"/></clipPath><clipPath id="d0923cdb18"><rect x="0" width="19" y="0" height="13"/></clipPath><clipPath id="6bcdcf6cfb"><path d="M 31 1 L 39.691406 1 L 39.691406 12 L 31 12 Z M 31 1 " clip-rule="nonzero"/></clipPath><clipPath id="2dc625adf7"><rect x="0" width="40" y="0" height="15"/></clipPath><clipPath id="7e1d185f73"><rect x="0" width="58" y="0" height="15"/></clipPath></defs><g clip-path="url(#47b32e1de1)"><path fill="#8495d0" d="M 31.789062 1.054688 C 31.773438 1.089844 31.710938 1.867188 31.644531 2.78125 C 31.453125 5.492188 31.425781 5.726562 31.308594 5.875 C 31.230469 5.980469 31.171875 5.984375 31.09375 5.898438 C 30.984375 5.777344 30.984375 5.761719 30.804688 2.378906 C 30.753906 1.347656 30.726562 1.171875 30.648438 1.171875 C 30.582031 1.171875 30.550781 1.351562 30.492188 2.035156 C 30.3125 4.390625 30.222656 6.660156 30.296875 7.0625 C 30.351562 7.34375 30.492188 7.636719 30.742188 7.972656 C 31.023438 8.34375 31.152344 8.585938 31.261719 8.902344 C 31.429688 9.414062 31.464844 9.730469 31.480469 11.097656 C 31.507812 13.011719 31.414062 14.398438 31.089844 16.855469 C 30.871094 18.523438 30.855469 18.710938 30.851562 19.339844 C 30.851562 19.953125 30.902344 20.292969 31.046875 20.652344 C 31.417969 21.5625 32.257812 21.628906 32.660156 20.78125 C 32.859375 20.363281 32.90625 20.066406 32.902344 19.304688 C 32.898438 18.632812 32.859375 18.167969 32.699219 17.015625 C 32.378906 14.722656 32.285156 13.488281 32.28125 11.539062 C 32.277344 9.300781 32.367188 8.855469 32.976562 8 C 33.269531 7.597656 33.398438 7.320312 33.453125 7 C 33.523438 6.582031 33.46875 5.191406 33.269531 2.515625 C 33.179688 1.285156 33.171875 1.222656 33.082031 1.222656 C 33.03125 1.222656 33.007812 1.257812 32.988281 1.363281 C 32.972656 1.441406 32.921875 2.382812 32.871094 3.460938 C 32.824219 4.539062 32.765625 5.515625 32.75 5.625 C 32.710938 5.859375 32.625 5.984375 32.515625 5.949219 C 32.332031 5.890625 32.332031 5.863281 32.019531 1.902344 C 31.984375 1.445312 31.945312 1.054688 31.929688 1.035156 C 31.894531 0.976562 31.816406 0.988281 31.789062 1.054688 Z M 31.34375 17.179688 C 31.320312 17.464844 31.296875 18.136719 31.296875 18.695312 C 31.296875 19.617188 31.304688 19.714844 31.378906 20.003906 C 31.421875 20.175781 31.496094 20.40625 31.546875 20.511719 L 31.632812 20.703125 L 31.53125 20.605469 C 31.398438 20.480469 31.230469 20.140625 31.152344 19.847656 C 31.0625 19.527344 31.070312 18.636719 31.167969 17.957031 C 31.335938 16.792969 31.363281 16.628906 31.378906 16.644531 C 31.386719 16.65625 31.371094 16.890625 31.34375 17.179688 Z M 31.34375 17.179688 " fill-opacity="1" fill-rule="nonzero"/></g><g clip-path="url(#c609b8335d)"><path fill="#8495d0" d="M 35.40625 2.261719 C 35.175781 2.382812 35.070312 2.5625 34.988281 2.953125 C 34.859375 3.613281 34.359375 7.566406 34.359375 7.949219 C 34.359375 8.34375 34.4375 8.613281 34.707031 9.164062 C 34.992188 9.738281 35.058594 10.003906 35.058594 10.535156 C 35.058594 11.777344 34.585938 13.433594 33.363281 16.472656 C 32.898438 17.621094 32.898438 17.628906 32.929688 17.816406 C 32.941406 17.917969 32.964844 18.007812 32.96875 18.015625 C 32.980469 18.027344 33.320312 17.171875 33.9375 15.589844 C 34.039062 15.316406 34.132812 15.097656 34.136719 15.101562 C 34.140625 15.109375 33.894531 15.871094 33.585938 16.800781 L 33.023438 18.492188 L 33.019531 19.238281 L 33.011719 19.988281 L 33.144531 19.988281 C 33.453125 19.988281 33.597656 20.351562 33.382812 20.589844 C 33.300781 20.679688 33.257812 20.699219 33.148438 20.699219 C 33.070312 20.699219 32.976562 20.6875 32.9375 20.671875 C 32.871094 20.648438 32.855469 20.664062 32.824219 20.765625 C 32.800781 20.832031 32.71875 20.980469 32.640625 21.089844 C 32.507812 21.277344 32.503906 21.292969 32.566406 21.335938 C 32.597656 21.367188 32.707031 21.410156 32.804688 21.4375 C 33.128906 21.535156 33.414062 21.429688 33.71875 21.09375 C 34.027344 20.757812 34.257812 20.210938 34.441406 19.394531 C 34.566406 18.832031 34.648438 18.292969 34.8125 16.980469 C 35.160156 14.222656 35.414062 12.882812 35.820312 11.714844 C 36.160156 10.730469 36.484375 10.25 37.085938 9.84375 C 37.667969 9.457031 37.925781 9.191406 38.128906 8.777344 C 38.183594 8.664062 38.351562 8.246094 38.503906 7.851562 C 38.648438 7.457031 39.027344 6.457031 39.34375 5.628906 C 39.65625 4.800781 39.933594 4.023438 39.953125 3.898438 C 40.003906 3.648438 39.972656 3.480469 39.851562 3.28125 C 39.71875 3.0625 39.777344 3.082031 36.875 2.414062 C 36.324219 2.289062 35.804688 2.183594 35.71875 2.183594 C 35.625 2.183594 35.5 2.214844 35.40625 2.261719 Z M 35.976562 3.679688 C 36.007812 3.710938 36.039062 3.761719 36.039062 3.796875 C 36.039062 3.890625 35.222656 7.707031 35.175781 7.828125 C 35.148438 7.902344 35.070312 7.925781 35.023438 7.867188 C 34.996094 7.832031 35 7.738281 35.039062 7.496094 C 35.070312 7.316406 35.171875 6.648438 35.269531 6.015625 C 35.570312 4.035156 35.621094 3.746094 35.679688 3.679688 C 35.746094 3.601562 35.890625 3.601562 35.976562 3.679688 Z M 36.953125 3.820312 C 37.0625 3.917969 37.105469 3.726562 36.40625 6.398438 C 35.949219 8.148438 35.976562 8.0625 35.894531 8.0625 C 35.855469 8.0625 35.816406 8.035156 35.804688 8.003906 C 35.785156 7.957031 35.925781 7.230469 36.421875 4.828125 C 36.632812 3.816406 36.652344 3.757812 36.820312 3.757812 C 36.859375 3.757812 36.917969 3.785156 36.953125 3.820312 Z M 37.949219 4.09375 C 38.003906 4.179688 38 4.203125 37.839844 4.75 C 37.273438 6.671875 36.800781 8.222656 36.773438 8.25 C 36.71875 8.300781 36.632812 8.242188 36.632812 8.160156 C 36.632812 8.113281 36.714844 7.714844 36.820312 7.273438 C 37.398438 4.832031 37.578125 4.128906 37.632812 4.070312 C 37.71875 3.972656 37.878906 3.984375 37.949219 4.09375 Z M 38.871094 4.355469 C 38.910156 4.390625 38.941406 4.453125 38.941406 4.484375 C 38.941406 4.582031 37.613281 8.390625 37.554688 8.445312 C 37.511719 8.488281 37.5 8.488281 37.449219 8.441406 C 37.402344 8.390625 37.425781 8.277344 37.734375 7.183594 C 38.308594 5.132812 38.523438 4.410156 38.582031 4.34375 C 38.652344 4.261719 38.785156 4.265625 38.871094 4.355469 Z M 38.871094 4.355469 " fill-opacity="1" fill-rule="nonzero"/></g><g clip-path="url(#a1aa0660c3)"><path fill="#8495d0" d="M 25.289062 2.78125 C 23.941406 3.101562 23.476562 5.488281 24.386719 7.480469 C 24.746094 8.273438 25.476562 8.980469 26.175781 9.21875 C 26.449219 9.308594 26.890625 9.34375 27.15625 9.289062 C 27.6875 9.175781 28.179688 8.777344 28.441406 8.234375 C 28.675781 7.761719 28.738281 7.46875 28.738281 6.855469 C 28.738281 6.285156 28.703125 6.050781 28.519531 5.503906 C 28.144531 4.390625 27.277344 3.316406 26.445312 2.9375 C 26.0625 2.761719 25.625 2.703125 25.289062 2.78125 Z M 24.71875 3.695312 C 24.457031 4.21875 24.320312 5.054688 24.382812 5.757812 C 24.425781 6.199219 24.503906 6.617188 24.601562 6.90625 C 24.710938 7.230469 24.710938 7.242188 24.644531 7.117188 C 24.453125 6.78125 24.246094 5.996094 24.199219 5.4375 C 24.152344 4.929688 24.289062 4.261719 24.515625 3.867188 C 24.613281 3.703125 24.804688 3.445312 24.832031 3.445312 C 24.839844 3.445312 24.789062 3.554688 24.71875 3.695312 Z M 24.71875 3.695312 " fill-opacity="1" fill-rule="nonzero"/></g><g clip-path="url(#ab0d9de2cf)"><path fill="#8495d0" d="M 28.894531 7.132812 C 28.789062 8.660156 27.808594 9.648438 26.5625 9.492188 C 25.945312 9.414062 25.253906 8.984375 24.746094 8.359375 L 24.628906 8.21875 L 24.746094 8.394531 C 24.8125 8.488281 24.996094 8.699219 25.160156 8.867188 C 25.445312 9.15625 25.652344 9.300781 26.257812 9.636719 C 26.761719 9.917969 27.078125 10.269531 27.414062 10.925781 C 28.046875 12.167969 28.539062 13.890625 29.183594 17.136719 C 29.398438 18.226562 29.625 19.183594 29.777344 19.636719 C 30.105469 20.613281 30.660156 21.28125 31.148438 21.28125 L 31.28125 21.28125 L 31.15625 21.113281 C 31.085938 21.023438 30.996094 20.886719 30.964844 20.808594 C 30.929688 20.734375 30.859375 20.640625 30.804688 20.609375 C 30.632812 20.511719 30.371094 20.226562 30.230469 19.988281 C 29.980469 19.558594 29.832031 19.058594 29.5625 17.71875 C 29.390625 16.84375 29.355469 16.597656 29.492188 17.144531 C 29.746094 18.160156 30.097656 19.257812 30.320312 19.726562 C 30.457031 20.007812 30.816406 20.570312 30.84375 20.539062 C 30.851562 20.53125 30.832031 20.441406 30.800781 20.335938 C 30.679688 19.894531 30.703125 18.828125 30.859375 17.582031 L 30.929688 17.050781 L 30.773438 16.738281 C 30.539062 16.269531 29.703125 14.457031 29.476562 13.933594 C 28.902344 12.585938 28.507812 11.402344 28.355469 10.566406 C 28.320312 10.390625 28.296875 10.066406 28.292969 9.84375 C 28.292969 9.394531 28.332031 9.210938 28.554688 8.726562 C 28.824219 8.113281 28.953125 7.554688 28.929688 7.046875 L 28.921875 6.785156 Z M 28.894531 7.132812 " fill-opacity="1" fill-rule="nonzero"/></g><g clip-path="url(#22e422d6ab)"><g clip-path="url(#a13fd908bf)"><g transform="matrix(1, 0, 0, 1, 22, 11)"><g clip-path="url(#625a53ae63)"><g clip-path="url(#dd45a20fe7)"><g clip-path="url(#9b36d8e8ee)"><path fill="#451486" d="M 0.484375 0.238281 L 19.433594 0.238281 L 19.433594 11.597656 L 0.484375 11.597656 Z M 0.484375 0.238281 " fill-opacity="1" fill-rule="nonzero"/></g></g></g></g></g></g><g clip-path="url(#4773877dd7)"><g clip-path="url(#c52b943196)"><g transform="matrix(1, 0, 0, 1, 31, 16)"><g clip-path="url(#13b0fe4594)"><g clip-path="url(#4792fecd13)"><g clip-path="url(#0d8fa66d03)"><path fill="#451486" d="M 0.949219 12.273438 L 0.949219 0.921875 L 10.417969 0.921875 L 10.417969 12.273438 Z M 0.949219 12.273438 " fill-opacity="1" fill-rule="nonzero"/></g></g></g></g></g></g><g clip-path="url(#4d70013a54)"><g clip-path="url(#72555a6e31)"><g transform="matrix(1, 0, 0, 1, 22, 16)"><g clip-path="url(#84bd81cd2f)"><g clip-path="url(#a759a607b9)"><g clip-path="url(#9ee45f8cc7)"><path fill="#b176ff" d="M 9.945312 0.917969 L 9.945312 12.273438 L 0.480469 12.273438 L 0.480469 0.917969 Z M 9.945312 0.917969 " fill-opacity="1" fill-rule="nonzero"/></g></g></g></g></g></g><g clip-path="url(#3e00a645c1)"><g clip-path="url(#8039934fe5)"><g transform="matrix(1, 0, 0, 1, 22, 22)"><g clip-path="url(#69b2a5facb)"><g clip-path="url(#e36355fec3)"><g clip-path="url(#e8d440b5d9)"><path fill="#8495d0" d="M 0.484375 0.597656 L 19.433594 0.597656 L 19.433594 11.960938 L 0.484375 11.960938 Z M 0.484375 0.597656 " fill-opacity="1" fill-rule="nonzero"/></g></g></g></g></g></g><g clip-path="url(#5803d5921c)"><g transform="matrix(1, 0, 0, 1, 9, 19)"><g clip-path="url(#d0923cdb18)"><path fill="#b176ff" d="M 2.648438 7.03125 C 2.75 7.117188 2.890625 7.105469 3.007812 7.070312 L 2.75 7.773438 L 3.164062 8.007812 L 1.824219 10.710938 C 1.722656 10.980469 2.085938 11.195312 2.257812 10.9375 L 3.5625 8.304688 C 3.960938 8.503906 4.316406 8.910156 4.507812 9.316406 C 4.730469 9.792969 5 10.941406 5.363281 11.238281 C 5.515625 11.359375 5.710938 11.429688 5.902344 11.445312 C 6.945312 11.527344 8.09375 11.378906 9.148438 11.445312 C 9.300781 11.449219 9.257812 11.183594 9.378906 11.160156 L 14 11.148438 C 14.402344 11.050781 14.503906 10.46875 14.167969 10.234375 C 13.902344 10.050781 13.265625 10.160156 12.929688 10.160156 C 12.855469 10.15625 12.792969 10.132812 12.726562 10.128906 C 11.746094 10.121094 10.761719 10.148438 9.777344 10.117188 C 9.871094 9.921875 9.945312 9.738281 10.0625 9.550781 C 10.847656 8.308594 12.660156 8.164062 13.613281 9.296875 C 13.730469 9.433594 13.855469 9.703125 13.992188 9.792969 C 14.171875 9.910156 14.410156 9.90625 14.617188 9.898438 C 14.394531 9.242188 14.058594 8.621094 13.617188 8.089844 L 14.488281 7.183594 C 14.644531 7.113281 15.050781 7.277344 15.101562 7.050781 L 15.109375 3.347656 C 15.105469 3.273438 15.042969 3.210938 14.964844 3.207031 L 10.898438 3.207031 C 10.808594 3.210938 10.746094 3.285156 10.753906 3.375 C 10.808594 4.496094 10.6875 5.679688 10.757812 6.796875 C 10.761719 6.855469 10.785156 7.113281 10.804688 7.136719 C 10.882812 7.203125 10.996094 7.160156 11.089844 7.171875 L 10.871094 7.429688 L 10.5 7.429688 L 10.5 6.8125 L 10.191406 6.8125 C 10.0625 7.429688 9.453125 7.582031 8.925781 7.71875 C 8.511719 7.828125 8.085938 7.910156 7.667969 7.996094 C 7.773438 8.488281 8.023438 8.992188 8.125 9.480469 C 8.140625 9.546875 8.121094 9.617188 8.132812 9.679688 C 8.171875 9.90625 8.25 10.007812 8.152344 10.242188 C 7.960938 10.707031 7.324219 10.554688 6.9375 10.542969 C 6.734375 10.535156 6.34375 10.597656 6.1875 10.492188 C 5.792969 10.21875 6.125 9.722656 6.460938 9.574219 L 5.730469 7.65625 C 5.664062 7.394531 5.667969 7.210938 5.769531 6.957031 C 5.792969 6.902344 5.835938 6.871094 5.839844 6.8125 L 4.640625 6.324219 C 4.601562 6.257812 4.757812 6.070312 4.753906 6.027344 C 4.75 6.003906 4.660156 5.933594 4.636719 5.894531 C 4.523438 5.714844 4.535156 5.535156 4.605469 5.34375 C 4.535156 5.359375 4.511719 5.40625 4.480469 5.464844 C 4.429688 5.554688 4.207031 6.101562 4.152344 6.113281 C 4.078125 6.058594 3.832031 6.035156 3.789062 6.007812 C 3.777344 6 3.734375 5.902344 3.703125 5.871094 C 3.542969 5.699219 3.34375 5.574219 3.097656 5.550781 C 3.023438 5.542969 2.648438 5.527344 2.648438 5.613281 Z M 11.324219 7.429688 C 11.328125 7.382812 11.523438 7.171875 11.542969 7.171875 L 14.027344 7.171875 L 13.371094 7.867188 L 12.804688 7.429688 Z M 11.324219 7.429688 " fill-opacity="1" fill-rule="nonzero"/><path fill="#b176ff" d="M 6.949219 4.03125 C 6.996094 4.042969 6.996094 4.015625 7.019531 3.988281 C 7.089844 3.90625 7.273438 3.558594 7.332031 3.527344 C 7.371094 3.511719 7.546875 3.621094 7.539062 3.65625 L 6.839844 4.707031 C 6.398438 4.789062 5.910156 4.777344 5.476562 4.863281 C 5.40625 4.875 5.105469 4.972656 5.070312 5.011719 C 5.023438 5.058594 5.050781 5.046875 5.09375 5.050781 C 5.148438 5.058594 5.195312 5.050781 5.253906 5.070312 C 5.476562 5.140625 5.675781 5.414062 5.632812 5.652344 L 7.261719 5.492188 L 7.382812 5.433594 C 7.683594 5.097656 7.898438 4.671875 8.15625 4.300781 L 8.363281 4.433594 L 7.652344 5.550781 C 7.699219 5.769531 7.851562 5.976562 7.835938 6.21875 C 7.796875 6.285156 6.550781 6.652344 6.355469 6.746094 C 6.007812 6.914062 5.882812 7.238281 5.988281 7.605469 L 6.792969 9.679688 C 6.671875 9.777344 6.304688 9.933594 6.277344 10.09375 C 6.253906 10.246094 6.316406 10.277344 6.445312 10.289062 C 6.746094 10.3125 7.414062 10.320312 7.707031 10.285156 C 8.058594 10.246094 7.875 9.8125 7.894531 9.585938 L 7.308594 7.816406 C 7.929688 7.65625 8.605469 7.5625 9.21875 7.371094 C 10.324219 7.023438 9.96875 6.054688 9.675781 5.203125 C 9.386719 4.363281 8.402344 2.171875 7.230469 3.167969 C 7.136719 3.246094 6.945312 3.519531 6.945312 3.632812 L 6.945312 4.03125 Z M 6.949219 4.03125 " fill-opacity="1" fill-rule="nonzero"/><g clip-path="url(#4b14cfa527)"><path fill="#b176ff" d="M 3.957031 10.859375 C 3.949219 10.847656 3.894531 10.832031 3.871094 10.800781 C 3.671875 10.554688 3.707031 10.175781 3.527344 9.855469 C 3.5 9.808594 3.296875 9.5 3.242188 9.539062 L 2.988281 10.046875 C 2.976562 10.113281 3.117188 10.328125 3.144531 10.421875 C 3.46875 11.464844 2.402344 12.347656 1.457031 11.800781 C 0.417969 11.195312 0.890625 9.605469 2.078125 9.613281 L 2.417969 8.933594 C 2.414062 8.867188 1.984375 8.867188 1.914062 8.871094 C 0.449219 8.96875 -0.363281 10.667969 0.46875 11.886719 C 1.296875 13.097656 3.152344 12.957031 3.777344 11.632812 C 3.839844 11.5 4.019531 10.96875 3.957031 10.859375 Z M 3.957031 10.859375 " fill-opacity="1" fill-rule="nonzero"/></g><g clip-path="url(#7ec8b1e635)"><path fill="#b176ff" d="M 5.660156 1.765625 L 6.421875 1.636719 C 6.734375 1.675781 6.707031 1.964844 6.582031 2.1875 C 6.40625 2.5 6.039062 2.566406 5.742188 2.707031 C 5.957031 3.273438 6.097656 3.410156 6.679688 3.160156 C 6.976562 3.035156 7.417969 2.816406 7.683594 2.644531 C 7.898438 2.507812 7.90625 2.421875 7.925781 2.164062 C 7.960938 1.707031 7.882812 1.304688 7.515625 1.007812 C 6.84375 0.464844 5.714844 0.886719 5.660156 1.765625 Z M 5.660156 1.765625 " fill-opacity="1" fill-rule="nonzero"/></g><g clip-path="url(#2ff94f100e)"><path fill="#b176ff" d="M 10.140625 11.417969 C 10.222656 11.792969 10.503906 12.132812 10.8125 12.355469 C 11.839844 13.101562 13.316406 12.644531 13.714844 11.445312 L 12.984375 11.445312 C 12.972656 11.445312 12.945312 11.410156 12.921875 11.429688 C 12.417969 12.148438 11.421875 12.132812 10.925781 11.417969 Z M 10.140625 11.417969 " fill-opacity="1" fill-rule="nonzero"/></g><path fill="#b176ff" d="M 10.292969 9.875 L 11.207031 9.875 C 11.222656 9.875 11.390625 9.75 11.445312 9.726562 C 11.742188 9.59375 12.03125 9.589844 12.332031 9.699219 C 12.40625 9.726562 12.628906 9.875 12.648438 9.875 L 13.589844 9.875 C 13.375 9.4375 12.949219 9.09375 12.480469 8.960938 C 11.632812 8.714844 10.667969 9.054688 10.292969 9.875 Z M 10.292969 9.875 " fill-opacity="1" fill-rule="nonzero"/><path fill="#b176ff" d="M 14.488281 2.949219 L 14.488281 2.449219 C 14.464844 2.410156 14.4375 2.414062 14.398438 2.410156 C 14.242188 2.390625 13.964844 2.4375 13.78125 2.4375 C 13.070312 2.429688 12.183594 2.339844 11.488281 2.410156 C 11.449219 2.410156 11.347656 2.429688 11.347656 2.472656 L 11.347656 2.910156 L 11.386719 2.949219 Z M 14.488281 2.949219 " fill-opacity="1" fill-rule="nonzero"/><g clip-path="url(#f87ce8b18b)"><path fill="#b176ff" d="M 0.566406 8.460938 C 0.523438 8.539062 0.871094 8.835938 0.964844 8.84375 C 1.046875 8.851562 1.355469 8.699219 1.480469 8.667969 C 1.835938 8.574219 2.175781 8.566406 2.53125 8.660156 L 2.78125 8.164062 C 2.054688 7.890625 1.210938 8.054688 0.566406 8.460938 Z M 0.566406 8.460938 " fill-opacity="1" fill-rule="nonzero"/></g><path fill="#b176ff" d="M 4.578125 10.777344 C 4.601562 9.988281 4.253906 9.25 3.664062 8.742188 L 3.398438 9.265625 C 3.625 9.496094 3.820312 9.773438 3.917969 10.085938 C 3.960938 10.222656 3.984375 10.5 4.050781 10.59375 C 4.140625 10.714844 4.433594 10.789062 4.578125 10.777344 Z M 4.578125 10.777344 " fill-opacity="1" fill-rule="nonzero"/><path fill="#b176ff" d="M 14.773438 9.515625 L 14.898438 9.832031 L 16.894531 9.847656 C 17.128906 9.808594 17.015625 9.515625 16.945312 9.515625 Z M 14.773438 9.515625 " fill-opacity="1" fill-rule="nonzero"/><path fill="#b176ff" d="M 14.855469 10.71875 C 14.878906 10.742188 14.976562 10.773438 15.015625 10.777344 C 15.285156 10.804688 15.988281 10.804688 16.253906 10.777344 C 16.503906 10.746094 16.5 10.449219 16.277344 10.417969 C 16.054688 10.382812 15.226562 10.386719 14.992188 10.414062 C 14.832031 10.433594 14.761719 10.613281 14.855469 10.71875 Z M 14.855469 10.71875 " fill-opacity="1" fill-rule="nonzero"/><path fill="#b176ff" d="M 14.335938 8.613281 L 14.488281 8.957031 L 14.527344 8.976562 C 14.832031 8.9375 15.253906 9.027344 15.546875 8.960938 C 15.691406 8.925781 15.707031 8.78125 15.632812 8.664062 C 15.621094 8.652344 15.542969 8.613281 15.53125 8.613281 Z M 14.335938 8.613281 " fill-opacity="1" fill-rule="nonzero"/><path fill="#b176ff" d="M 5.179688 5.324219 C 4.792969 5.234375 4.667969 5.765625 4.996094 5.867188 C 5.398438 5.996094 5.515625 5.402344 5.179688 5.324219 Z M 5.179688 5.324219 " fill-opacity="1" fill-rule="nonzero"/><g clip-path="url(#0a06bf8176)"><path fill="#b176ff" d="M 18.03125 9.546875 C 17.984375 9.503906 17.582031 9.5 17.515625 9.519531 C 17.375 9.5625 17.398438 9.804688 17.566406 9.84375 C 17.636719 9.859375 17.871094 9.859375 17.941406 9.84375 C 18.078125 9.8125 18.132812 9.640625 18.03125 9.546875 Z M 18.03125 9.546875 " fill-opacity="1" fill-rule="nonzero"/></g></g></g></g><g transform="matrix(1, 0, 0, 1, 47, 12)"><g clip-path="url(#2dc625adf7)"><g fill="#451486" fill-opacity="0.0902"><g transform="translate(1.675999, 11.67636)"><g><path d="M 7.46875 -9.90625 L 7.46875 -8.015625 L 3.234375 -8.015625 L 3.234375 -5.765625 L 6.90625 -5.765625 L 6.90625 -3.890625 L 3.234375 -3.890625 L 3.234375 0 L 1.28125 0 L 1.28125 -9.90625 Z M 7.46875 -9.90625 "/></g></g></g><g fill="#451486" fill-opacity="0.0902"><g transform="translate(8.767994, 11.67636)"><g><path d="M 0.671875 -4.9375 C 0.671875 -5.832031 0.894531 -6.671875 1.34375 -7.453125 C 1.800781 -8.234375 2.414062 -8.851562 3.1875 -9.3125 C 3.96875 -9.78125 4.8125 -10.015625 5.71875 -10.015625 C 6.625 -10.015625 7.460938 -9.78125 8.234375 -9.3125 C 9.015625 -8.851562 9.632812 -8.234375 10.09375 -7.453125 C 10.5625 -6.671875 10.796875 -5.832031 10.796875 -4.9375 C 10.796875 -4.019531 10.5625 -3.175781 10.09375 -2.40625 C 9.632812 -1.632812 9.015625 -1.019531 8.234375 -0.5625 C 7.460938 -0.113281 6.625 0.109375 5.71875 0.109375 C 4.800781 0.109375 3.957031 -0.113281 3.1875 -0.5625 C 2.414062 -1.019531 1.800781 -1.632812 1.34375 -2.40625 C 0.894531 -3.175781 0.671875 -4.019531 0.671875 -4.9375 Z M 2.6875 -4.9375 C 2.6875 -4.363281 2.820312 -3.832031 3.09375 -3.34375 C 3.375 -2.863281 3.75 -2.484375 4.21875 -2.203125 C 4.6875 -1.921875 5.207031 -1.78125 5.78125 -1.78125 C 6.34375 -1.78125 6.847656 -1.921875 7.296875 -2.203125 C 7.753906 -2.484375 8.113281 -2.863281 8.375 -3.34375 C 8.632812 -3.820312 8.765625 -4.351562 8.765625 -4.9375 C 8.765625 -5.53125 8.628906 -6.066406 8.359375 -6.546875 C 8.097656 -7.035156 7.734375 -7.421875 7.265625 -7.703125 C 6.804688 -7.984375 6.296875 -8.125 5.734375 -8.125 C 5.171875 -8.125 4.65625 -7.984375 4.1875 -7.703125 C 3.726562 -7.421875 3.363281 -7.035156 3.09375 -6.546875 C 2.820312 -6.066406 2.6875 -5.53125 2.6875 -4.9375 Z M 2.6875 -4.9375 "/></g></g></g><g fill="#451486" fill-opacity="0.0902"><g transform="translate(19.251314, 11.67636)"><g><path d="M 0.671875 -4.9375 C 0.671875 -5.832031 0.894531 -6.671875 1.34375 -7.453125 C 1.800781 -8.234375 2.414062 -8.851562 3.1875 -9.3125 C 3.96875 -9.78125 4.8125 -10.015625 5.71875 -10.015625 C 6.625 -10.015625 7.460938 -9.78125 8.234375 -9.3125 C 9.015625 -8.851562 9.632812 -8.234375 10.09375 -7.453125 C 10.5625 -6.671875 10.796875 -5.832031 10.796875 -4.9375 C 10.796875 -4.019531 10.5625 -3.175781 10.09375 -2.40625 C 9.632812 -1.632812 9.015625 -1.019531 8.234375 -0.5625 C 7.460938 -0.113281 6.625 0.109375 5.71875 0.109375 C 4.800781 0.109375 3.957031 -0.113281 3.1875 -0.5625 C 2.414062 -1.019531 1.800781 -1.632812 1.34375 -2.40625 C 0.894531 -3.175781 0.671875 -4.019531 0.671875 -4.9375 Z M 2.6875 -4.9375 C 2.6875 -4.363281 2.820312 -3.832031 3.09375 -3.34375 C 3.375 -2.863281 3.75 -2.484375 4.21875 -2.203125 C 4.6875 -1.921875 5.207031 -1.78125 5.78125 -1.78125 C 6.34375 -1.78125 6.847656 -1.921875 7.296875 -2.203125 C 7.753906 -2.484375 8.113281 -2.863281 8.375 -3.34375 C 8.632812 -3.820312 8.765625 -4.351562 8.765625 -4.9375 C 8.765625 -5.53125 8.628906 -6.066406 8.359375 -6.546875 C 8.097656 -7.035156 7.734375 -7.421875 7.265625 -7.703125 C 6.804688 -7.984375 6.296875 -8.125 5.734375 -8.125 C 5.171875 -8.125 4.65625 -7.984375 4.1875 -7.703125 C 3.726562 -7.421875 3.363281 -7.035156 3.09375 -6.546875 C 2.820312 -6.066406 2.6875 -5.53125 2.6875 -4.9375 Z M 2.6875 -4.9375 "/></g></g></g><g clip-path="url(#6bcdcf6cfb)"><g fill="#451486" fill-opacity="0.0902"><g transform="translate(29.734635, 11.67636)"><g><path d="M 1.28125 -9.90625 L 4.234375 -9.90625 C 5.503906 -9.90625 6.546875 -9.660156 7.359375 -9.171875 C 8.171875 -8.679688 8.765625 -8.046875 9.140625 -7.265625 C 9.515625 -6.492188 9.703125 -5.664062 9.703125 -4.78125 C 9.703125 -3.820312 9.476562 -2.976562 9.03125 -2.25 C 8.582031 -1.53125 7.976562 -0.972656 7.21875 -0.578125 C 6.457031 -0.191406 5.625 0 4.71875 0 L 1.28125 0 Z M 4.390625 -1.890625 C 5.398438 -1.890625 6.203125 -2.144531 6.796875 -2.65625 C 7.390625 -3.175781 7.6875 -3.925781 7.6875 -4.90625 C 7.6875 -5.695312 7.519531 -6.328125 7.1875 -6.796875 C 6.863281 -7.265625 6.484375 -7.585938 6.046875 -7.765625 C 5.609375 -7.941406 5.195312 -8.03125 4.8125 -8.03125 L 3.234375 -8.03125 L 3.234375 -1.890625 Z M 4.390625 -1.890625 "/></g></g></g></g><g fill="#451486" fill-opacity="1"><g transform="translate(1.081138, 11.081499)"><g><path d="M 7.46875 -9.90625 L 7.46875 -8.015625 L 3.234375 -8.015625 L 3.234375 -5.765625 L 6.90625 -5.765625 L 6.90625 -3.890625 L 3.234375 -3.890625 L 3.234375 0 L 1.28125 0 L 1.28125 -9.90625 Z M 7.46875 -9.90625 "/></g></g></g><g fill="#451486" fill-opacity="1"><g transform="translate(8.173132, 11.081499)"><g><path d="M 0.671875 -4.9375 C 0.671875 -5.832031 0.894531 -6.671875 1.34375 -7.453125 C 1.800781 -8.234375 2.414062 -8.851562 3.1875 -9.3125 C 3.96875 -9.78125 4.8125 -10.015625 5.71875 -10.015625 C 6.625 -10.015625 7.460938 -9.78125 8.234375 -9.3125 C 9.015625 -8.851562 9.632812 -8.234375 10.09375 -7.453125 C 10.5625 -6.671875 10.796875 -5.832031 10.796875 -4.9375 C 10.796875 -4.019531 10.5625 -3.175781 10.09375 -2.40625 C 9.632812 -1.632812 9.015625 -1.019531 8.234375 -0.5625 C 7.460938 -0.113281 6.625 0.109375 5.71875 0.109375 C 4.800781 0.109375 3.957031 -0.113281 3.1875 -0.5625 C 2.414062 -1.019531 1.800781 -1.632812 1.34375 -2.40625 C 0.894531 -3.175781 0.671875 -4.019531 0.671875 -4.9375 Z M 2.6875 -4.9375 C 2.6875 -4.363281 2.820312 -3.832031 3.09375 -3.34375 C 3.375 -2.863281 3.75 -2.484375 4.21875 -2.203125 C 4.6875 -1.921875 5.207031 -1.78125 5.78125 -1.78125 C 6.34375 -1.78125 6.847656 -1.921875 7.296875 -2.203125 C 7.753906 -2.484375 8.113281 -2.863281 8.375 -3.34375 C 8.632812 -3.820312 8.765625 -4.351562 8.765625 -4.9375 C 8.765625 -5.53125 8.628906 -6.066406 8.359375 -6.546875 C 8.097656 -7.035156 7.734375 -7.421875 7.265625 -7.703125 C 6.804688 -7.984375 6.296875 -8.125 5.734375 -8.125 C 5.171875 -8.125 4.65625 -7.984375 4.1875 -7.703125 C 3.726562 -7.421875 3.363281 -7.035156 3.09375 -6.546875 C 2.820312 -6.066406 2.6875 -5.53125 2.6875 -4.9375 Z M 2.6875 -4.9375 "/></g></g></g><g fill="#451486" fill-opacity="1"><g transform="translate(18.656453, 11.081499)"><g><path d="M 0.671875 -4.9375 C 0.671875 -5.832031 0.894531 -6.671875 1.34375 -7.453125 C 1.800781 -8.234375 2.414062 -8.851562 3.1875 -9.3125 C 3.96875 -9.78125 4.8125 -10.015625 5.71875 -10.015625 C 6.625 -10.015625 7.460938 -9.78125 8.234375 -9.3125 C 9.015625 -8.851562 9.632812 -8.234375 10.09375 -7.453125 C 10.5625 -6.671875 10.796875 -5.832031 10.796875 -4.9375 C 10.796875 -4.019531 10.5625 -3.175781 10.09375 -2.40625 C 9.632812 -1.632812 9.015625 -1.019531 8.234375 -0.5625 C 7.460938 -0.113281 6.625 0.109375 5.71875 0.109375 C 4.800781 0.109375 3.957031 -0.113281 3.1875 -0.5625 C 2.414062 -1.019531 1.800781 -1.632812 1.34375 -2.40625 C 0.894531 -3.175781 0.671875 -4.019531 0.671875 -4.9375 Z M 2.6875 -4.9375 C 2.6875 -4.363281 2.820312 -3.832031 3.09375 -3.34375 C 3.375 -2.863281 3.75 -2.484375 4.21875 -2.203125 C 4.6875 -1.921875 5.207031 -1.78125 5.78125 -1.78125 C 6.34375 -1.78125 6.847656 -1.921875 7.296875 -2.203125 C 7.753906 -2.484375 8.113281 -2.863281 8.375 -3.34375 C 8.632812 -3.820312 8.765625 -4.351562 8.765625 -4.9375 C 8.765625 -5.53125 8.628906 -6.066406 8.359375 -6.546875 C 8.097656 -7.035156 7.734375 -7.421875 7.265625 -7.703125 C 6.804688 -7.984375 6.296875 -8.125 5.734375 -8.125 C 5.171875 -8.125 4.65625 -7.984375 4.1875 -7.703125 C 3.726562 -7.421875 3.363281 -7.035156 3.09375 -6.546875 C 2.820312 -6.066406 2.6875 -5.53125 2.6875 -4.9375 Z M 2.6875 -4.9375 "/></g></g></g><g fill="#451486" fill-opacity="1"><g transform="translate(29.139774, 11.081499)"><g><path d="M 1.28125 -9.90625 L 4.234375 -9.90625 C 5.503906 -9.90625 6.546875 -9.660156 7.359375 -9.171875 C 8.171875 -8.679688 8.765625 -8.046875 9.140625 -7.265625 C 9.515625 -6.492188 9.703125 -5.664062 9.703125 -4.78125 C 9.703125 -3.820312 9.476562 -2.976562 9.03125 -2.25 C 8.582031 -1.53125 7.976562 -0.972656 7.21875 -0.578125 C 6.457031 -0.191406 5.625 0 4.71875 0 L 1.28125 0 Z M 4.390625 -1.890625 C 5.398438 -1.890625 6.203125 -2.144531 6.796875 -2.65625 C 7.390625 -3.175781 7.6875 -3.925781 7.6875 -4.90625 C 7.6875 -5.695312 7.519531 -6.328125 7.1875 -6.796875 C 6.863281 -7.265625 6.484375 -7.585938 6.046875 -7.765625 C 5.609375 -7.941406 5.195312 -8.03125 4.8125 -8.03125 L 3.234375 -8.03125 L 3.234375 -1.890625 Z M 4.390625 -1.890625 "/></g></g></g></g></g><g transform="matrix(1, 0, 0, 1, 86, 12)"><g clip-path="url(#7e1d185f73)"><g fill="#ffffff" fill-opacity="0.4"><g transform="translate(1.237472, 11.558516)"><g><path d="M 8.03125 -9.90625 L 8.03125 -8.015625 L 3.234375 -8.015625 L 3.234375 -5.90625 L 7.484375 -5.90625 L 7.484375 -4.015625 L 3.234375 -4.015625 L 3.234375 -1.890625 L 8.21875 -1.890625 L 8.21875 0 L 1.28125 0 L 1.28125 -9.90625 Z M 8.03125 -9.90625 "/></g></g></g><g fill="#ffffff" fill-opacity="0.4"><g transform="translate(9.214474, 11.558516)"><g><path d="M 6.90625 0 L 4.6875 -3.421875 L 2.765625 0 L 0.34375 0 L 3.578125 -5.109375 L 0.46875 -9.90625 L 2.953125 -9.90625 L 5.09375 -6.625 L 6.953125 -9.90625 L 9.328125 -9.90625 L 6.171875 -4.984375 L 9.421875 0 Z M 6.90625 0 "/></g></g></g><g fill="#ffffff" fill-opacity="0.4"><g transform="translate(17.985196, 11.558516)"><g><path d="M 4.28125 -9.90625 C 5.488281 -9.90625 6.421875 -9.601562 7.078125 -9 C 7.742188 -8.40625 8.078125 -7.59375 8.078125 -6.5625 C 8.078125 -5.96875 7.960938 -5.410156 7.734375 -4.890625 C 7.515625 -4.378906 7.144531 -3.957031 6.625 -3.625 C 6.113281 -3.300781 5.445312 -3.140625 4.625 -3.140625 L 3.234375 -3.140625 L 3.234375 0 L 1.28125 0 L 1.28125 -9.90625 Z M 4.609375 -5.03125 C 4.984375 -5.03125 5.28125 -5.113281 5.5 -5.28125 C 5.726562 -5.445312 5.890625 -5.640625 5.984375 -5.859375 C 6.085938 -6.085938 6.140625 -6.304688 6.140625 -6.515625 C 6.140625 -6.859375 6.035156 -7.191406 5.828125 -7.515625 C 5.617188 -7.847656 5.21875 -8.015625 4.625 -8.015625 L 3.234375 -8.015625 L 3.234375 -5.03125 Z M 4.609375 -5.03125 "/></g></g></g><g fill="#ffffff" fill-opacity="0.4"><g transform="translate(25.558616, 11.558516)"><g><path d="M 6.625 0 L 4.53125 -3.140625 L 3.234375 -3.140625 L 3.234375 0 L 1.28125 0 L 1.28125 -9.90625 L 4.28125 -9.90625 C 5.507812 -9.90625 6.460938 -9.601562 7.140625 -9 C 7.816406 -8.40625 8.15625 -7.59375 8.15625 -6.5625 C 8.15625 -5.957031 8.023438 -5.382812 7.765625 -4.84375 C 7.515625 -4.3125 7.125 -3.894531 6.59375 -3.59375 L 8.890625 0 Z M 3.234375 -5.03125 L 4.609375 -5.03125 C 5.140625 -5.03125 5.523438 -5.179688 5.765625 -5.484375 C 6.015625 -5.796875 6.140625 -6.132812 6.140625 -6.5 C 6.140625 -6.851562 6.035156 -7.191406 5.828125 -7.515625 C 5.617188 -7.847656 5.21875 -8.015625 4.625 -8.015625 L 3.234375 -8.015625 Z M 3.234375 -5.03125 "/></g></g></g><g fill="#ffffff" fill-opacity="0.4"><g transform="translate(33.804676, 11.558516)"><g><path d="M 8.03125 -9.90625 L 8.03125 -8.015625 L 3.234375 -8.015625 L 3.234375 -5.90625 L 7.484375 -5.90625 L 7.484375 -4.015625 L 3.234375 -4.015625 L 3.234375 -1.890625 L 8.21875 -1.890625 L 8.21875 0 L 1.28125 0 L 1.28125 -9.90625 Z M 8.03125 -9.90625 "/></g></g></g><g fill="#ffffff" fill-opacity="0.4"><g transform="translate(41.781678, 11.558516)"><g><path d="M 6.5625 -7.5 C 5.707031 -7.976562 4.957031 -8.21875 4.3125 -8.21875 C 3.882812 -8.21875 3.550781 -8.128906 3.3125 -7.953125 C 3.070312 -7.785156 2.953125 -7.535156 2.953125 -7.203125 C 2.953125 -6.878906 3.125 -6.597656 3.46875 -6.359375 C 3.820312 -6.128906 4.285156 -5.90625 4.859375 -5.6875 C 5.328125 -5.519531 5.722656 -5.328125 6.046875 -5.109375 C 6.378906 -4.890625 6.65625 -4.585938 6.875 -4.203125 C 7.09375 -3.816406 7.203125 -3.328125 7.203125 -2.734375 C 7.203125 -2.222656 7.070312 -1.75 6.8125 -1.3125 C 6.550781 -0.875 6.164062 -0.523438 5.65625 -0.265625 C 5.144531 -0.015625 4.535156 0.109375 3.828125 0.109375 C 3.234375 0.109375 2.644531 0.0195312 2.0625 -0.15625 C 1.476562 -0.332031 0.9375 -0.597656 0.4375 -0.953125 L 1.296875 -2.46875 C 1.628906 -2.21875 2.015625 -2.007812 2.453125 -1.84375 C 2.898438 -1.6875 3.296875 -1.609375 3.640625 -1.609375 C 4.054688 -1.609375 4.414062 -1.695312 4.71875 -1.875 C 5.019531 -2.050781 5.171875 -2.335938 5.171875 -2.734375 C 5.171875 -3.242188 4.691406 -3.6875 3.734375 -4.0625 C 3.171875 -4.289062 2.703125 -4.503906 2.328125 -4.703125 C 1.953125 -4.910156 1.625 -5.207031 1.34375 -5.59375 C 1.070312 -5.976562 0.9375 -6.460938 0.9375 -7.046875 C 0.9375 -7.898438 1.21875 -8.585938 1.78125 -9.109375 C 2.34375 -9.628906 3.085938 -9.910156 4.015625 -9.953125 C 4.753906 -9.953125 5.367188 -9.867188 5.859375 -9.703125 C 6.359375 -9.535156 6.84375 -9.300781 7.3125 -9 Z M 6.5625 -7.5 "/></g></g></g><g fill="#ffffff" fill-opacity="0.4"><g transform="translate(48.642093, 11.558516)"><g><path d="M 6.5625 -7.5 C 5.707031 -7.976562 4.957031 -8.21875 4.3125 -8.21875 C 3.882812 -8.21875 3.550781 -8.128906 3.3125 -7.953125 C 3.070312 -7.785156 2.953125 -7.535156 2.953125 -7.203125 C 2.953125 -6.878906 3.125 -6.597656 3.46875 -6.359375 C 3.820312 -6.128906 4.285156 -5.90625 4.859375 -5.6875 C 5.328125 -5.519531 5.722656 -5.328125 6.046875 -5.109375 C 6.378906 -4.890625 6.65625 -4.585938 6.875 -4.203125 C 7.09375 -3.816406 7.203125 -3.328125 7.203125 -2.734375 C 7.203125 -2.222656 7.070312 -1.75 6.8125 -1.3125 C 6.550781 -0.875 6.164062 -0.523438 5.65625 -0.265625 C 5.144531 -0.015625 4.535156 0.109375 3.828125 0.109375 C 3.234375 0.109375 2.644531 0.0195312 2.0625 -0.15625 C 1.476562 -0.332031 0.9375 -0.597656 0.4375 -0.953125 L 1.296875 -2.46875 C 1.628906 -2.21875 2.015625 -2.007812 2.453125 -1.84375 C 2.898438 -1.6875 3.296875 -1.609375 3.640625 -1.609375 C 4.054688 -1.609375 4.414062 -1.695312 4.71875 -1.875 C 5.019531 -2.050781 5.171875 -2.335938 5.171875 -2.734375 C 5.171875 -3.242188 4.691406 -3.6875 3.734375 -4.0625 C 3.171875 -4.289062 2.703125 -4.503906 2.328125 -4.703125 C 1.953125 -4.910156 1.625 -5.207031 1.34375 -5.59375 C 1.070312 -5.976562 0.9375 -6.460938 0.9375 -7.046875 C 0.9375 -7.898438 1.21875 -8.585938 1.78125 -9.109375 C 2.34375 -9.628906 3.085938 -9.910156 4.015625 -9.953125 C 4.753906 -9.953125 5.367188 -9.867188 5.859375 -9.703125 C 6.359375 -9.535156 6.84375 -9.300781 7.3125 -9 Z M 6.5625 -7.5 "/></g></g></g><g fill="#000000" fill-opacity="1"><g transform="translate(0.642614, 10.963656)"><g><path d="M 8.03125 -9.90625 L 8.03125 -8.015625 L 3.234375 -8.015625 L 3.234375 -5.90625 L 7.484375 -5.90625 L 7.484375 -4.015625 L 3.234375 -4.015625 L 3.234375 -1.890625 L 8.21875 -1.890625 L 8.21875 0 L 1.28125 0 L 1.28125 -9.90625 Z M 8.03125 -9.90625 "/></g></g></g><g fill="#000000" fill-opacity="1"><g transform="translate(8.619616, 10.963656)"><g><path d="M 6.90625 0 L 4.6875 -3.421875 L 2.765625 0 L 0.34375 0 L 3.578125 -5.109375 L 0.46875 -9.90625 L 2.953125 -9.90625 L 5.09375 -6.625 L 6.953125 -9.90625 L 9.328125 -9.90625 L 6.171875 -4.984375 L 9.421875 0 Z M 6.90625 0 "/></g></g></g><g fill="#000000" fill-opacity="1"><g transform="translate(17.390338, 10.963656)"><g><path d="M 4.28125 -9.90625 C 5.488281 -9.90625 6.421875 -9.601562 7.078125 -9 C 7.742188 -8.40625 8.078125 -7.59375 8.078125 -6.5625 C 8.078125 -5.96875 7.960938 -5.410156 7.734375 -4.890625 C 7.515625 -4.378906 7.144531 -3.957031 6.625 -3.625 C 6.113281 -3.300781 5.445312 -3.140625 4.625 -3.140625 L 3.234375 -3.140625 L 3.234375 0 L 1.28125 0 L 1.28125 -9.90625 Z M 4.609375 -5.03125 C 4.984375 -5.03125 5.28125 -5.113281 5.5 -5.28125 C 5.726562 -5.445312 5.890625 -5.640625 5.984375 -5.859375 C 6.085938 -6.085938 6.140625 -6.304688 6.140625 -6.515625 C 6.140625 -6.859375 6.035156 -7.191406 5.828125 -7.515625 C 5.617188 -7.847656 5.21875 -8.015625 4.625 -8.015625 L 3.234375 -8.015625 L 3.234375 -5.03125 Z M 4.609375 -5.03125 "/></g></g></g><g fill="#000000" fill-opacity="1"><g transform="translate(24.963759, 10.963656)"><g><path d="M 6.625 0 L 4.53125 -3.140625 L 3.234375 -3.140625 L 3.234375 0 L 1.28125 0 L 1.28125 -9.90625 L 4.28125 -9.90625 C 5.507812 -9.90625 6.460938 -9.601562 7.140625 -9 C 7.816406 -8.40625 8.15625 -7.59375 8.15625 -6.5625 C 8.15625 -5.957031 8.023438 -5.382812 7.765625 -4.84375 C 7.515625 -4.3125 7.125 -3.894531 6.59375 -3.59375 L 8.890625 0 Z M 3.234375 -5.03125 L 4.609375 -5.03125 C 5.140625 -5.03125 5.523438 -5.179688 5.765625 -5.484375 C 6.015625 -5.796875 6.140625 -6.132812 6.140625 -6.5 C 6.140625 -6.851562 6.035156 -7.191406 5.828125 -7.515625 C 5.617188 -7.847656 5.21875 -8.015625 4.625 -8.015625 L 3.234375 -8.015625 Z M 3.234375 -5.03125 "/></g></g></g><g fill="#000000" fill-opacity="1"><g transform="translate(33.209818, 10.963656)"><g><path d="M 8.03125 -9.90625 L 8.03125 -8.015625 L 3.234375 -8.015625 L 3.234375 -5.90625 L 7.484375 -5.90625 L 7.484375 -4.015625 L 3.234375 -4.015625 L 3.234375 -1.890625 L 8.21875 -1.890625 L 8.21875 0 L 1.28125 0 L 1.28125 -9.90625 Z M 8.03125 -9.90625 "/></g></g></g><g fill="#000000" fill-opacity="1"><g transform="translate(41.18682, 10.963656)"><g><path d="M 6.5625 -7.5 C 5.707031 -7.976562 4.957031 -8.21875 4.3125 -8.21875 C 3.882812 -8.21875 3.550781 -8.128906 3.3125 -7.953125 C 3.070312 -7.785156 2.953125 -7.535156 2.953125 -7.203125 C 2.953125 -6.878906 3.125 -6.597656 3.46875 -6.359375 C 3.820312 -6.128906 4.285156 -5.90625 4.859375 -5.6875 C 5.328125 -5.519531 5.722656 -5.328125 6.046875 -5.109375 C 6.378906 -4.890625 6.65625 -4.585938 6.875 -4.203125 C 7.09375 -3.816406 7.203125 -3.328125 7.203125 -2.734375 C 7.203125 -2.222656 7.070312 -1.75 6.8125 -1.3125 C 6.550781 -0.875 6.164062 -0.523438 5.65625 -0.265625 C 5.144531 -0.015625 4.535156 0.109375 3.828125 0.109375 C 3.234375 0.109375 2.644531 0.0195312 2.0625 -0.15625 C 1.476562 -0.332031 0.9375 -0.597656 0.4375 -0.953125 L 1.296875 -2.46875 C 1.628906 -2.21875 2.015625 -2.007812 2.453125 -1.84375 C 2.898438 -1.6875 3.296875 -1.609375 3.640625 -1.609375 C 4.054688 -1.609375 4.414062 -1.695312 4.71875 -1.875 C 5.019531 -2.050781 5.171875 -2.335938 5.171875 -2.734375 C 5.171875 -3.242188 4.691406 -3.6875 3.734375 -4.0625 C 3.171875 -4.289062 2.703125 -4.503906 2.328125 -4.703125 C 1.953125 -4.910156 1.625 -5.207031 1.34375 -5.59375 C 1.070312 -5.976562 0.9375 -6.460938 0.9375 -7.046875 C 0.9375 -7.898438 1.21875 -8.585938 1.78125 -9.109375 C 2.34375 -9.628906 3.085938 -9.910156 4.015625 -9.953125 C 4.753906 -9.953125 5.367188 -9.867188 5.859375 -9.703125 C 6.359375 -9.535156 6.84375 -9.300781 7.3125 -9 Z M 6.5625 -7.5 "/></g></g></g><g fill="#000000" fill-opacity="1"><g transform="translate(48.047236, 10.963656)"><g><path d="M 6.5625 -7.5 C 5.707031 -7.976562 4.957031 -8.21875 4.3125 -8.21875 C 3.882812 -8.21875 3.550781 -8.128906 3.3125 -7.953125 C 3.070312 -7.785156 2.953125 -7.535156 2.953125 -7.203125 C 2.953125 -6.878906 3.125 -6.597656 3.46875 -6.359375 C 3.820312 -6.128906 4.285156 -5.90625 4.859375 -5.6875 C 5.328125 -5.519531 5.722656 -5.328125 6.046875 -5.109375 C 6.378906 -4.890625 6.65625 -4.585938 6.875 -4.203125 C 7.09375 -3.816406 7.203125 -3.328125 7.203125 -2.734375 C 7.203125 -2.222656 7.070312 -1.75 6.8125 -1.3125 C 6.550781 -0.875 6.164062 -0.523438 5.65625 -0.265625 C 5.144531 -0.015625 4.535156 0.109375 3.828125 0.109375 C 3.234375 0.109375 2.644531 0.0195312 2.0625 -0.15625 C 1.476562 -0.332031 0.9375 -0.597656 0.4375 -0.953125 L 1.296875 -2.46875 C 1.628906 -2.21875 2.015625 -2.007812 2.453125 -1.84375 C 2.898438 -1.6875 3.296875 -1.609375 3.640625 -1.609375 C 4.054688 -1.609375 4.414062 -1.695312 4.71875 -1.875 C 5.019531 -2.050781 5.171875 -2.335938 5.171875 -2.734375 C 5.171875 -3.242188 4.691406 -3.6875 3.734375 -4.0625 C 3.171875 -4.289062 2.703125 -4.503906 2.328125 -4.703125 C 1.953125 -4.910156 1.625 -5.207031 1.34375 -5.59375 C 1.070312 -5.976562 0.9375 -6.460938 0.9375 -7.046875 C 0.9375 -7.898438 1.21875 -8.585938 1.78125 -9.109375 C 2.34375 -9.628906 3.085938 -9.910156 4.015625 -9.953125 C 4.753906 -9.953125 5.367188 -9.867188 5.859375 -9.703125 C 6.359375 -9.535156 6.84375 -9.300781 7.3125 -9 Z M 6.5625 -7.5 "/></g></g></g></g></g></svg>